<svg xmlns="http://www.w3.org/2000/svg" width="18.124" height="18.772" viewBox="0 0 18.124 18.772">
    <g id="flight-international" transform="translate(-3 -3)">
        <path id="Path_10778" data-name="Path 10778" d="M12.062,19.83a3.448,3.448,0,0,1-.434-.028A14.1,14.1,0,0,1,9.494,12.71h11.6c.016-.215.032-.429.032-.647a9.062,9.062,0,1,0-9.062,9.062ZM19.8,11.415H15.922A15.746,15.746,0,0,0,14.14,4.586,7.775,7.775,0,0,1,19.8,11.415ZM12.5,4.323a14.1,14.1,0,0,1,2.134,7.092H9.494a14.1,14.1,0,0,1,2.134-7.092,3.339,3.339,0,0,1,.869,0Zm-2.512.262A15.748,15.748,0,0,0,8.2,11.415H4.327A7.776,7.776,0,0,1,9.984,4.586ZM4.327,12.71H8.2a15.748,15.748,0,0,0,1.782,6.829A7.776,7.776,0,0,1,4.327,12.71Z" transform="translate(0 0)" fill="#aaa"/>
        <path id="Path_10779" data-name="Path 10779" d="M31.531,32.384l3.237,1.295V32.384l-3.237-1.618V29.147a.647.647,0,0,0-1.295,0v1.618L27,32.384v1.295l3.237-1.295v2.266l-1.295.971v.647l1.942-.647,1.942.647V35.62l-1.295-.971Z" transform="translate(-13.643 -14.496)" fill="#aaa" fill-rule="evenodd"/>
    </g>
</svg>
