<svg xmlns="http://www.w3.org/2000/svg" width="344.488" height="176.39" viewBox="0 0 344.488 176.39">
  <g id="Group_8513" data-name="Group 8513" transform="translate(-15 -108.193)">
    <rect id="Rectangle_515" data-name="Rectangle 515" width="333" height="163" rx="16" transform="translate(26.488 115)" fill="#ca1221"/>
    <g id="Group_8503" data-name="Group 8503" transform="translate(184.252 91.11)" opacity="0.25">
      <path id="Path_10806" data-name="Path 10806" d="M128.393,37.077a6.2,6.2,0,1,1-2.454-4.063A6.207,6.207,0,0,1,128.393,37.077Z" transform="translate(-24.814 88.874)" fill="#f5f5f5"/>
      <path id="Path_10807" data-name="Path 10807" d="M133.606,43.966A4.731,4.731,0,1,1,128.225,40,4.731,4.731,0,0,1,133.606,43.966Z" transform="translate(-31.486 82.206)" fill="#ebebeb"/>
      <path id="Path_10808" data-name="Path 10808" d="M133.2,42.979a3.235,3.235,0,0,1-.208-.543,5.021,5.021,0,0,0-.755-1.353,4.811,4.811,0,0,0-.748-.755,4.657,4.657,0,0,0-2.324-1,4.57,4.57,0,0,0-.708-.036,4.773,4.773,0,0,0-.725.074,4.969,4.969,0,0,0-.7.181,4.45,4.45,0,0,0-.648.293,4.175,4.175,0,0,0-.578.362,4.408,4.408,0,0,0-.5.427,4.758,4.758,0,0,0-.746.96,4.946,4.946,0,0,0-.431.967,5,5,0,0,0-.226,1.532,3.509,3.509,0,0,1,0,.581c-.025.005-.092-.2-.139-.574a4.369,4.369,0,0,1,.121-1.61,4.776,4.776,0,0,1,1.185-2.1,4.878,4.878,0,0,1,1.145-.873,4.754,4.754,0,0,1,.7-.313,5.056,5.056,0,0,1,.761-.2,5.276,5.276,0,0,1,.784-.078,4.82,4.82,0,0,1,.763.045,4.586,4.586,0,0,1,.725.159,4.48,4.48,0,0,1,.659.254,4.755,4.755,0,0,1,1.846,1.547,4.425,4.425,0,0,1,.685,1.463A1.3,1.3,0,0,1,133.2,42.979Z" transform="translate(-31.105 83.047)" fill="#e0e0e0"/>
      <path id="Path_10809" data-name="Path 10809" d="M141.75,53.854l.134.813-.724.12-.132-.79a3.493,3.493,0,0,1-1.9-.283l.252-.947a2.97,2.97,0,0,0,1.494.283l-.2-1.212c-.839-.063-1.782-.181-1.954-1.221-.127-.77.322-1.521,1.449-1.842l-.134-.806.725-.12.13.79a3.34,3.34,0,0,1,1.547.2l-.216.953a3.021,3.021,0,0,0-1.172-.194l.2,1.235c.835.054,1.766.181,1.934,1.2C143.309,52.778,142.867,53.523,141.75,53.854Zm-1.257-3.079-.17-1.031c-.362.15-.487.386-.447.625s.283.344.618.393Zm1.538,1.541c-.042-.254-.275-.362-.6-.415l.167,1c.35-.152.478-.366.438-.6Z" transform="translate(-43.358 75.738)" fill="#e0e0e0"/>
    </g>
    <g id="Group_8504" data-name="Group 8504" transform="translate(-28.883 27.159)" opacity="0.25">
      <path id="Path_10810" data-name="Path 10810" d="M359.359,233.853a5.769,5.769,0,1,1-6.571-4.838A5.769,5.769,0,0,1,359.359,233.853Z" transform="translate(-192.959 -54.107)" fill="#f5f5f5"/>
      <path id="Path_10811" data-name="Path 10811" d="M361.62,237.673a4.4,4.4,0,1,1-5.008-3.687A4.4,4.4,0,0,1,361.62,237.673Z" transform="translate(-196.581 -57.724)" fill="#ebebeb"/>
      <path id="Path_10812" data-name="Path 10812" d="M361.31,237.139a2.632,2.632,0,0,1-.192-.505,4.794,4.794,0,0,0-.7-1.261,4.672,4.672,0,0,0-.7-.7,4.4,4.4,0,0,0-.964-.591,4.318,4.318,0,0,0-1.2-.338,4.431,4.431,0,0,0-1.335.036,4.7,4.7,0,0,0-.657.173,4.424,4.424,0,0,0-.6.275,4.263,4.263,0,0,0-.549.341,4.429,4.429,0,0,0-1.563,2.2,4.671,4.671,0,0,0-.212,1.426,2.418,2.418,0,0,1,0,.549,1.324,1.324,0,0,1-.129-.536,4.092,4.092,0,0,1,.113-1.5,4.445,4.445,0,0,1,1.593-2.387,4.423,4.423,0,0,1,.577-.374,4.206,4.206,0,0,1,.648-.294,4.975,4.975,0,0,1,.709-.19,4.7,4.7,0,0,1,.728-.071,4.346,4.346,0,0,1,.712.041,4.394,4.394,0,0,1,.67.148,4.292,4.292,0,0,1,.613.236,4.4,4.4,0,0,1,1.723,1.431,4.065,4.065,0,0,1,.637,1.374,1.3,1.3,0,0,1,.082.522Z" transform="translate(-196.292 -57.326)" fill="#e0e0e0"/>
      <path id="Path_10813" data-name="Path 10813" d="M364.563,244.351l.126.758-.676.113-.124-.736a3.234,3.234,0,0,1-1.769-.275l.234-.885a2.747,2.747,0,0,0,1.39.275l-.187-1.126c-.78-.058-1.648-.17-1.819-1.137-.118-.714.3-1.415,1.346-1.714l-.124-.75.676-.113.121.736a3.11,3.11,0,0,1,1.44.187l-.2.887a2.769,2.769,0,0,0-1.1-.181l.19,1.148c.78.052,1.648.165,1.8,1.118C366.016,243.356,365.6,244.046,364.563,244.351Zm-1.17-2.874-.159-.959c-.343.14-.453.36-.415.582s.261.332.574.376Zm1.431,1.437c-.038-.236-.255-.332-.549-.387l.154.934c.313-.132.431-.33.39-.547Z" transform="translate(-202.993 -61.224)" fill="#e0e0e0"/>
    </g>
    <g id="Group_8506" data-name="Group 8506" transform="translate(120.453 -17.73)" opacity="0.25">
      <g id="Group_8505" data-name="Group 8505">
        <path id="Path_10814" data-name="Path 10814" d="M51.41,249.759a7.838,7.838,0,1,1-8.917-6.566A7.838,7.838,0,0,1,51.41,249.759Z" transform="translate(33.372 -64.374)" fill="#f5f5f5"/>
        <path id="Path_10815" data-name="Path 10815" d="M54.494,254.952a5.972,5.972,0,1,1-6.8-5A5.972,5.972,0,0,1,54.494,254.952Z" transform="translate(28.445 -69.29)" fill="#ebebeb"/>
        <path id="Path_10816" data-name="Path 10816" d="M54.174,254.211a3.515,3.515,0,0,1-.275-.687,6.36,6.36,0,0,0-.942-1.692,6.063,6.063,0,0,0-.945-.956,5.956,5.956,0,0,0-1.308-.8,5.472,5.472,0,0,0-.78-.275,5.77,5.77,0,0,0-1.742-.223,6.118,6.118,0,0,0-.915.093,5.833,5.833,0,0,0-3.071,1.6,5.942,5.942,0,0,0-1.483,2.44,6.319,6.319,0,0,0-.288,1.923,3.5,3.5,0,0,1,0,.736,1.8,1.8,0,0,1-.173-.725,5.494,5.494,0,0,1,.154-2.033,5.931,5.931,0,0,1,1.494-2.646,6.132,6.132,0,0,1,1.445-1.1,5.944,5.944,0,0,1,.882-.4,6.122,6.122,0,0,1,1.951-.357,6.228,6.228,0,0,1,.964.058,6.074,6.074,0,0,1,.909.2,6.148,6.148,0,0,1,.824.321,6.045,6.045,0,0,1,1.374.89,6.218,6.218,0,0,1,.959,1.052,5.525,5.525,0,0,1,.874,1.841A1.786,1.786,0,0,1,54.174,254.211Z" transform="translate(28.736 -68.735)" fill="#e0e0e0"/>
        <path id="Path_10817" data-name="Path 10817" d="M58.516,264.019l.17,1.027-.918.151-.165-1a4.429,4.429,0,0,1-2.4-.357l.319-1.2a3.775,3.775,0,0,0,1.887.357l-.253-1.533c-1.06-.077-2.253-.228-2.472-1.538-.159-.973.407-1.923,1.83-2.327l-.168-1,.918-.151.165,1a4.2,4.2,0,0,1,1.953.25l-.275,1.2a3.846,3.846,0,0,0-1.481-.245l.258,1.558c1.055.071,2.231.225,2.445,1.516C60.486,262.675,59.926,263.615,58.516,264.019Zm-1.588-3.9-.214-1.3c-.467.192-.615.489-.566.791s.357.459.78.519Zm1.942,1.956c-.052-.321-.346-.451-.764-.522l.209,1.264C58.758,262.645,58.92,262.37,58.871,262.076Z" transform="translate(19.714 -74.054)" fill="#e0e0e0"/>
      </g>
    </g>
    <g id="Group_8502" data-name="Group 8502" transform="matrix(0.777, -0.629, 0.629, 0.777, -69.304, 136.402)" opacity="0.25">
      <path id="Path_10818" data-name="Path 10818" d="M298.19,67.712l-47.862-14.9a2.335,2.335,0,0,1-1.536-2.92L258,20.328a2.332,2.332,0,0,1,2.918-1.536l47.865,14.9a2.332,2.332,0,0,1,1.53,2.918l-9.2,29.568A2.335,2.335,0,0,1,298.19,67.712Z" transform="translate(-121.013 98.39)" fill="#e0e0e0"/>
      <path id="Path_10819" data-name="Path 10819" d="M274.123,100.188l-.907,2.912-.3-.093.824-2.637-.687-.214.085-.275Z" transform="translate(-138.589 39.503)" fill="#fff"/>
      <path id="Path_10820" data-name="Path 10820" d="M279.591,105.862l-.085.275-2.036-.635.066-.212,1.574-.808c.429-.22.549-.4.615-.6.1-.335-.069-.615-.511-.755a1.047,1.047,0,0,0-.9.077l-.154-.247a1.374,1.374,0,0,1,1.159-.1c.588.184.868.6.717,1.1-.085.275-.25.5-.758.761l-1.291.662Z" transform="translate(-141.889 37.4)" fill="#fff"/>
      <path id="Path_10821" data-name="Path 10821" d="M290.207,109.193l-.582-.181-.236.764-.3-.093.239-.761-1.648-.511.088-.225,2.137-1.445.332.1-2.069,1.412,1.261.393.209-.673.291.091-.212.673.582.181Z" transform="translate(-149.294 34.528)" fill="#fff"/>
      <path id="Path_10822" data-name="Path 10822" d="M306.4,114.258l-.58-.181-.239.764-.3-.093.239-.764-1.648-.511.069-.214,2.137-1.448.332.1-2.069,1.412,1.261.393.209-.67.291.088-.209.673.58.181Z" transform="translate(-161.036 30.85)" fill="#fff"/>
      <path id="Path_10823" data-name="Path 10823" d="M316.473,116.406c-.154.494-.618.772-1.327.549a1.582,1.582,0,0,1-.926-.7l.22-.192a1.319,1.319,0,0,0,.786.613c.495.154.824,0,.942-.357s-.047-.679-.783-.907l-.618-.192.6-1.412,1.591.494-.085.275-1.327-.412-.387.893.374.115C316.41,115.445,316.632,115.892,316.473,116.406Z" transform="translate(-168.543 29.4)" fill="#fff"/>
      <path id="Path_10824" data-name="Path 10824" d="M327.287,120.106a.946.946,0,0,1-1.272.582c-.769-.239-1.022-.907-.736-1.824a1.379,1.379,0,0,1,1.794-1.1,1.4,1.4,0,0,1,.64.374l-.2.2a1.05,1.05,0,0,0-.522-.313c-.626-.2-1.154.082-1.4.871-.019.066-.041.151-.06.239a.97.97,0,0,1,1.044-.22A.935.935,0,0,1,327.287,120.106Zm-.3-.085a.666.666,0,0,0-.536-.854.669.669,0,1,0-.368,1.264.662.662,0,0,0,.9-.409Z" transform="translate(-176.481 26.582)" fill="#fff"/>
      <path id="Path_10825" data-name="Path 10825" d="M341.37,123.968c-.151.486-.621.75-1.321.53a1.585,1.585,0,0,1-.929-.7l.22-.192a1.318,1.318,0,0,0,.794.615c.481.151.824,0,.929-.352s-.063-.654-.6-.824l-.206-.063.069-.22,1.118-.758-1.486-.462.082-.275,1.868.582-.066.212-1.143.78C341.307,123.078,341.516,123.5,341.37,123.968Z" transform="translate(-186.602 23.989)" fill="#fff"/>
      <path id="Path_10826" data-name="Path 10826" d="M352.4,127.909a.944.944,0,0,1-1.269.582c-.772-.239-1.025-.907-.739-1.821a1.441,1.441,0,0,1,2.434-.725l-.2.2a1.055,1.055,0,0,0-.522-.313c-.626-.2-1.154.082-1.4.871a1.879,1.879,0,0,0-.06.239.972.972,0,0,1,1.041-.22A.95.95,0,0,1,352.4,127.909Zm-.3-.085a.666.666,0,0,0-.536-.852.67.67,0,1,0-.371,1.264.668.668,0,0,0,.893-.4Z" transform="translate(-194.692 20.921)" fill="#fff"/>
      <path id="Path_10827" data-name="Path 10827" d="M363.552,128.1l-.066.212-2.055,2.313-.321-.1,2.016-2.266-1.494-.467-.17.549-.294-.091.253-.824Z" transform="translate(-202.551 19.522)" fill="#fff"/>
      <path id="Path_10828" data-name="Path 10828" d="M378.642,132.847l-.066.212-2.052,2.316-.324-.1,2.016-2.266-1.494-.464-.168.549-.3-.093.253-.808Z" transform="translate(-213.495 16.069)" fill="#fff"/>
      <path id="Path_10829" data-name="Path 10829" d="M387.08,138.692c-.159.514-.7.7-1.387.484s-1.022-.67-.86-1.184a.755.755,0,0,1,.78-.549.681.681,0,0,1-.255-.78c.146-.475.64-.643,1.255-.453s.931.615.786,1.1a.7.7,0,0,1-.665.495A.766.766,0,0,1,387.08,138.692Zm-.3-.1c.11-.357-.126-.679-.64-.838s-.887-.03-1,.327.121.679.637.838.89.033,1-.327Zm-.569-1.074c.453.14.786.022.885-.294s-.121-.615-.549-.753-.78-.022-.879.3S385.756,137.379,386.206,137.519Z" transform="translate(-219.727 13.21)" fill="#fff"/>
      <path id="Path_10830" data-name="Path 10830" d="M397.717,141.269a1.379,1.379,0,0,1-1.8,1.1,1.4,1.4,0,0,1-.64-.374l.2-.2a1.1,1.1,0,0,0,.522.313c.626.2,1.154-.082,1.4-.871.019-.066.041-.151.06-.239a.975.975,0,0,1-1.044.22.918.918,0,0,1-.706-1.176.955.955,0,0,1,1.269-.582C397.75,139.686,398,140.351,397.717,141.269Zm-.234-.7a.706.706,0,0,0-.571-.863.665.665,0,1,0-.371,1.264.7.7,0,0,0,.942-.4Z" transform="translate(-227.334 10.842)" fill="#fff"/>
      <path id="Path_10831" data-name="Path 10831" d="M413.3,143.523l-.9,2.907-.3-.093.824-2.64-.684-.212.082-.275Z" transform="translate(-239.533 8.077)" fill="#fff"/>
      <path id="Path_10832" data-name="Path 10832" d="M418.768,149.184l-.082.275-2.036-.643.066-.212,1.574-.808c.429-.22.549-.4.615-.6.1-.335-.069-.615-.514-.753a1.025,1.025,0,0,0-.893.077l-.154-.25a1.374,1.374,0,0,1,1.159-.093c.588.181.868.6.717,1.082-.088.275-.25.5-.761.761l-1.288.662Z" transform="translate(-242.833 5.984)" fill="#fff"/>
      <path id="Path_10833" data-name="Path 10833" d="M428.55,151.1c-.151.484-.621.747-1.321.53a1.588,1.588,0,0,1-.929-.7l.22-.19a1.327,1.327,0,0,0,.794.615c.481.151.824,0,.929-.352s-.066-.654-.6-.824l-.206-.063.069-.223,1.118-.755-1.486-.464.082-.275,1.868.58-.066.212-1.151.791C428.487,150.213,428.69,150.633,428.55,151.1Z" transform="translate(-249.832 4.313)" fill="#fff"/>
      <rect id="Rectangle_531" data-name="Rectangle 531" width="1.321" height="24.362" transform="matrix(0.297, -0.955, 0.955, 0.297, 155.099, 152.715)" fill="#fff"/>
      <rect id="Rectangle_532" data-name="Rectangle 532" width="1.321" height="12.494" transform="matrix(0.297, -0.955, 0.955, 0.297, 165.648, 158.763)" fill="#fff"/>
      <g id="Group_8495" data-name="Group 8495" transform="translate(134.103 129.474)" opacity="0.5">
        <rect id="Rectangle_533" data-name="Rectangle 533" width="10.184" height="7.609" rx="3.804" transform="translate(2.291) rotate(17.526)" fill="#ebebeb"/>
      </g>
      <path id="Path_10834" data-name="Path 10834" d="M276,74.538l.146-.467,5.025,1.563a1.1,1.1,0,1,0,.657-2.1L276.8,71.967l.146-.467,5.027,1.563a1.593,1.593,0,0,1-.948,3.041Z" transform="translate(-140.823 60.086)" fill="#e0e0e0"/>
      <rect id="Rectangle_534" data-name="Rectangle 534" width="0.489" height="3.613" transform="translate(141.879 135.299) rotate(-72.66)" fill="#e0e0e0"/>
      <rect id="Rectangle_535" data-name="Rectangle 535" width="26.291" height="2.255" transform="matrix(0.955, 0.297, -0.297, 0.955, 139.835, 123.707)" fill="#fff"/>
      <rect id="Rectangle_536" data-name="Rectangle 536" width="5.291" height="5.291" rx="2.646" transform="matrix(0.955, 0.297, -0.297, 0.955, 178.318, 134.099)" fill="#fff"/>
    </g>
    <g id="E-Wallet-pana" transform="translate(-13.984 64.063)">
      <g id="freepik--Wallet--inject-33" transform="translate(28.984 152.665)">
        <rect id="Rectangle_537" data-name="Rectangle 537" width="68.984" height="60.465" rx="8.76" transform="translate(1.955)" fill="#455a64" stroke="#fff" stroke-width="1"/>
        <g id="Group_8496" data-name="Group 8496" transform="translate(1.955 37.894)" opacity="0.3">
          <path id="Path_10835" data-name="Path 10835" d="M36.49,412.225H61.618a1.755,1.755,0,0,0,1.755-1.755H36.56Z" transform="translate(-36.49 -410.47)"/>
        </g>
        <rect id="Rectangle_538" data-name="Rectangle 538" width="29.761" height="15.692" rx="4.99" transform="translate(0.108 22.426)" fill="#455a64"/>
        <path id="Path_10836" data-name="Path 10836" d="M59.713,390.79a2.632,2.632,0,0,0,.851-.2,2.308,2.308,0,0,0,.847-.654,2.194,2.194,0,0,0,.439-1.342c0-2.193-.022-5.4-.035-9.335v-1.513a6.321,6.321,0,0,0-.026-.768,2.045,2.045,0,0,0-.241-.724,2.1,2.1,0,0,0-1.189-.978,2.457,2.457,0,0,0-.807-.1H34.317a2.075,2.075,0,0,0-1.755,1,1.97,1.97,0,0,0-.3,1v11.617a2.084,2.084,0,0,0,.956,1.566,2.123,2.123,0,0,0,.877.3c.3.031.632,0,.948,0H46.952l9.335.039h2.54l-2.54.022-9.353.145H34.063a2.237,2.237,0,0,1-.952-.338,2.29,2.29,0,0,1-1.066-1.7c-.026-.689,0-1.347,0-2.036v-9.612a2.255,2.255,0,0,1,.329-1.105A2.312,2.312,0,0,1,34.331,375H59.564a2.632,2.632,0,0,1,.877.11,2.281,2.281,0,0,1,1.29,1.07,2.237,2.237,0,0,1,.254.781,6.1,6.1,0,0,1,.026.794v1.513c0,3.948-.031,7.124-.039,9.34a2.193,2.193,0,0,1-2,2.193Z" transform="translate(-32.033 -352.663)" fill="#263238"/>
        <g id="Group_8497" data-name="Group 8497" transform="translate(18.125 27.567)" opacity="0.3">
          <circle id="Ellipse_69" data-name="Ellipse 69" cx="4.404" cy="4.404" r="4.404"/>
        </g>
        <circle id="Ellipse_70" data-name="Ellipse 70" cx="4.404" cy="4.404" r="4.404" transform="translate(16.302 30.437) rotate(-45)" fill="#ebebeb"/>
        <path id="Path_10837" data-name="Path 10837" d="M82.035,387.713a8.3,8.3,0,0,0-.184-1.066,4.387,4.387,0,0,0-1.606-2.369,4.3,4.3,0,0,0-4.084-.6,4.058,4.058,0,0,0-1.084.583,4.005,4.005,0,0,0-.908.917,4.282,4.282,0,0,0,0,5.076,4.344,4.344,0,0,0,7.695-1.474,10.66,10.66,0,0,0,.184-1.066,3.51,3.51,0,0,1-.1,1.088,4.361,4.361,0,0,1-1.6,2.479,4.426,4.426,0,0,1-1.882.855,4.514,4.514,0,0,1-2.369-.184,4.247,4.247,0,0,1-1.145-.61,4.3,4.3,0,0,1-.956-.956,4.483,4.483,0,0,1,0-5.339,4.207,4.207,0,0,1,.956-.956,4.261,4.261,0,0,1,1.145-.614,4.514,4.514,0,0,1,2.369-.18,4.431,4.431,0,0,1,3.479,3.334A3.509,3.509,0,0,1,82.035,387.713Z" transform="translate(-55.096 -357.277)" fill="#263238"/>
      </g>
      <g id="freepik--speech-bubble--inject-33" transform="translate(57.601 72.388)">
        <path id="Path_10838" data-name="Path 10838" d="M46.953,123.239l-2.9-.351a11.147,11.147,0,1,1,2.869-2.777h0Z" transform="translate(-26.664 -102.417)" fill="#fff"/>
        <path id="Path_10839" data-name="Path 10839" d="M46.89,123.168v-.82c0-.535-.026-1.316-.044-2.312l.066.031h0a.039.039,0,0,1-.057,0,.048.048,0,0,1,0-.053,11.038,11.038,0,0,0,1.952-4.957,11.23,11.23,0,0,0-.092-3.51,11.117,11.117,0,0,0-1.435-3.716,11.323,11.323,0,0,0-3.005-3.216,10.787,10.787,0,0,0-4.361-1.882,11.257,11.257,0,0,0-5.045.215,10.814,10.814,0,0,0-4.6,2.632,11.125,11.125,0,0,0-1.755,2.093c-.224.39-.439.776-.649,1.176l-.263.614-.127.3-.1.316a11.327,11.327,0,0,0-.439,5.08,10.783,10.783,0,0,0,1.72,4.479,11.09,11.09,0,0,0,6.808,4.729l.921.158c.3.048.605.053.877.083a9.936,9.936,0,0,0,1.7-.035,11.09,11.09,0,0,0,5.01-1.755H44l2.136.281.562.079.2.031h-.184l-.553-.057-2.167-.237h.026a11.068,11.068,0,0,1-5.041,1.838,9.727,9.727,0,0,1-1.724.044c-.3-.026-.6-.031-.908-.075l-.934-.158a11.222,11.222,0,0,1-3.746-1.588,11.52,11.52,0,0,1-3.194-3.238,10.928,10.928,0,0,1-1.755-4.549,11.472,11.472,0,0,1,.439-5.172l.1-.32.132-.311c.092-.206.18-.439.268-.623.2-.412.439-.8.658-1.2a11.529,11.529,0,0,1,1.755-2.132,10.967,10.967,0,0,1,4.676-2.658,11.406,11.406,0,0,1,5.19-.233,10.893,10.893,0,0,1,4.431,1.926,11.406,11.406,0,0,1,3.027,3.273,11.2,11.2,0,0,1,1.443,3.777,11.485,11.485,0,0,1,.075,3.558,11.09,11.09,0,0,1-2.014,4.988l-.061-.053h0a.039.039,0,0,1,.057,0,.031.031,0,0,1,0,.026v2.935C46.894,123.129,46.89,123.168,46.89,123.168Z" transform="translate(-26.601 -102.346)" fill="#263238"/>
        <path id="Path_10840" data-name="Path 10840" d="M40.97,123.624l1.391-1.492,2.869,2.382,5.286-5.444,1.386,1.4L45.12,127.3Z" transform="translate(-34.666 -111.734)" fill="#007ec6"/>
      </g>
      <g id="freepik--Character--inject-33" transform="translate(76.393 51.082)">
        <path id="Path_10841" data-name="Path 10841" d="M95.115,108.322a8.418,8.418,0,0,1,8.932-7.111l.439.031c4.668.614,6.751,4.926,6.01,9.577l-1.628,16.5-.079,3.409L97.669,131.74l.241-7.2S93.453,123.51,93.725,119C93.839,116.82,94.492,112.354,95.115,108.322Z" transform="translate(-80.4 -97.39)" fill="#ffbf9d"/>
        <path id="Path_10842" data-name="Path 10842" d="M103.19,152.706a10.924,10.924,0,0,0,6.032-1.316s-1.566,3.255-6.032,2.522Z" transform="translate(-85.719 -125.569)" fill="#ff9a6c"/>
        <path id="Path_10843" data-name="Path 10843" d="M100.887,127.007a.645.645,0,0,0,.575.693.623.623,0,0,0,.706-.531.645.645,0,0,0-.575-.7.623.623,0,0,0-.706.535Z" transform="translate(-84.426 -111.578)" fill="#263238"/>
        <path id="Path_10844" data-name="Path 10844" d="M98.74,121.883c.075.088.588-.237,1.281-.184s1.176.439,1.255.355-.031-.193-.237-.368a1.785,1.785,0,0,0-1-.39,1.755,1.755,0,0,0-1.027.25C98.788,121.694,98.705,121.843,98.74,121.883Z" transform="translate(-83.217 -108.674)" fill="#263238"/>
        <path id="Path_10845" data-name="Path 10845" d="M115.687,128.415a.64.64,0,0,0,.57.693.614.614,0,0,0,.706-.531.649.649,0,0,0-.57-.7.614.614,0,0,0-.706.535Z" transform="translate(-92.732 -112.368)" fill="#263238"/>
        <path id="Path_10846" data-name="Path 10846" d="M114.24,123.306c.075.092.588-.233,1.281-.184s1.176.439,1.255.36-.031-.193-.241-.373a1.755,1.755,0,0,0-1-.386,1.68,1.68,0,0,0-1.027.25C114.288,123.122,114.205,123.28,114.24,123.306Z" transform="translate(-91.917 -109.475)" fill="#263238"/>
        <path id="Path_10847" data-name="Path 10847" d="M105.468,127.985a4.659,4.659,0,0,0-1.11-.285c-.175-.031-.342-.079-.364-.2a.917.917,0,0,1,.158-.513l.623-1.316a21.749,21.749,0,0,0,1.43-3.439,23.639,23.639,0,0,0-1.707,3.317c-.206.439-.408.877-.6,1.316a1.026,1.026,0,0,0-.145.689.439.439,0,0,0,.272.276,1.227,1.227,0,0,0,.3.066A4.522,4.522,0,0,0,105.468,127.985Z" transform="translate(-86.031 -109.2)" fill="#263238"/>
        <path id="Path_10848" data-name="Path 10848" d="M109.237,136.78c-.11,0-.167.737-.847,1.224a3.718,3.718,0,0,1-1.492.439c-.013.092.167.158.5.193a1.878,1.878,0,0,0,1.241-.333,1.628,1.628,0,0,0,.662-1.031C109.36,136.973,109.29,136.78,109.237,136.78Z" transform="translate(-87.801 -117.368)" fill="#263238"/>
        <path id="Path_10849" data-name="Path 10849" d="M114.287,117.3c.057.193.755.154,1.557.311s1.448.439,1.571.263c.053-.079-.048-.263-.3-.465a2.777,2.777,0,0,0-2.378-.439C114.428,117.07,114.266,117.21,114.287,117.3Z" transform="translate(-91.947 -106.195)" fill="#263238"/>
        <path id="Path_10850" data-name="Path 10850" d="M99.652,117.3c.11.167.6.039,1.171.07s1.053.184,1.176.026c.057-.075,0-.237-.211-.4a1.72,1.72,0,0,0-1.9-.079C99.683,117.063,99.6,117.221,99.652,117.3Z" transform="translate(-83.726 -106.078)" fill="#263238"/>
        <path id="Path_10851" data-name="Path 10851" d="M129.1,131.6a1.22,1.22,0,0,1,1.4-1.079c.838.14,1.755.684,1.553,2.417-.32,3.071-3.343,2.114-3.338,2.027S128.952,132.89,129.1,131.6Z" transform="translate(-100.049 -113.846)" fill="#ffbf9d"/>
        <path id="Path_10852" data-name="Path 10852" d="M130.524,135.187a.936.936,0,0,0,.136.1.54.54,0,0,0,.4.048,1.316,1.316,0,0,0,.737-1.123,1.825,1.825,0,0,0-.07-.781.623.623,0,0,0-.36-.439.281.281,0,0,0-.333.114c-.048.083-.035.145-.053.149s-.061-.057,0-.18a.316.316,0,0,1,.14-.18.4.4,0,0,1,.307-.048.755.755,0,0,1,.487.5,1.8,1.8,0,0,1,.092.877,1.359,1.359,0,0,1-.917,1.242.566.566,0,0,1-.483-.132C130.519,135.266,130.511,135.2,130.524,135.187Z" transform="translate(-101.059 -115.152)" fill="#ff9a6c"/>
        <path id="Path_10853" data-name="Path 10853" d="M110.4,107.156c-.254.877-.162,2.347-.948,2.145-1.566-.395-1.189,2.812-1.939,2.5s-1.4-1.22-1.443-3.194c-.057-2.5.948-4.308-.035-7.177a3.8,3.8,0,0,0-3.167-1.961,3.86,3.86,0,0,0-3.321,1.755,3.94,3.94,0,0,0-1.342-2.632,2.264,2.264,0,0,0-2.487.206,1.838,1.838,0,0,0-.325,2.391.877.877,0,0,1-.983-.351,1.474,1.474,0,0,0,.39,1.123,1.364,1.364,0,0,1-.794-.553c.079.364.154.724.233,1.084a3.493,3.493,0,0,1-2.974-2.373,5.873,5.873,0,0,1,.838-4.992A5.409,5.409,0,0,1,96.6,92.53a4.144,4.144,0,0,1,4.018,2.54,5.833,5.833,0,0,1,4.861-.522,4.225,4.225,0,0,1,2.408,3.347,2.518,2.518,0,0,1,2.492.483l.167.145a3.764,3.764,0,0,1,1.092,3.466c-.1.5-.272,1.022-.373,1.426C110.959,104.629,110.4,107.156,110.4,107.156Z" transform="translate(-78.889 -92.53)" fill="#263238"/>
        <path id="Path_10854" data-name="Path 10854" d="M97.128,105.5s-.039,0-.105-.083a1.921,1.921,0,0,1-.259-.281,2.632,2.632,0,0,1-.518-1.316,2.5,2.5,0,0,1,.614-1.97,2.694,2.694,0,0,1,2.351-.877,3.023,3.023,0,0,1,1.246.491,4.04,4.04,0,0,1,.934.825,4.9,4.9,0,0,1,1.1,3.268,1.023,1.023,0,0,1-.039.382.531.531,0,0,1-.026.132,5.883,5.883,0,0,0-.18-1.891,4.953,4.953,0,0,0-.948-1.812,3.439,3.439,0,0,0-2.088-1.272,2.593,2.593,0,0,0-2.242.838,2.426,2.426,0,0,0-.61,1.878,2.667,2.667,0,0,0,.465,1.285C97,105.359,97.136,105.491,97.128,105.5Z" transform="translate(-81.811 -97.256)" fill="#455a64"/>
        <path id="Path_10855" data-name="Path 10855" d="M95.287,105.679a.732.732,0,0,1-.092-.149c-.057-.1-.14-.25-.241-.439a9.941,9.941,0,0,1-.724-1.72,4.9,4.9,0,0,1-.2-1.277,3.509,3.509,0,0,1,.268-1.461,2.86,2.86,0,0,1,1.057-1.259,3.457,3.457,0,0,1,1.671-.553,4.264,4.264,0,0,1,1.755.276,5.518,5.518,0,0,1,1.426.816,4.229,4.229,0,0,1,1.557,2.255,3.071,3.071,0,0,1-.092,1.851,2.219,2.219,0,0,1-.228.439.588.588,0,0,1-.11.14,3.608,3.608,0,0,0,.29-.61,3.11,3.11,0,0,0,.048-1.807,4.2,4.2,0,0,0-1.544-2.193,4.694,4.694,0,0,0-3.071-1.053,3.33,3.33,0,0,0-1.61.531,2.759,2.759,0,0,0-1.013,1.193,3.466,3.466,0,0,0-.268,1.413,4.773,4.773,0,0,0,.18,1.25,10.389,10.389,0,0,0,.68,1.72l.219.439A.829.829,0,0,1,95.287,105.679Z" transform="translate(-80.575 -96.058)" fill="#455a64"/>
        <path id="Path_10856" data-name="Path 10856" d="M132.72,113.915a5.773,5.773,0,0,0,.662-.676,4.65,4.65,0,0,0,.983-2.009A4.58,4.58,0,0,0,134.26,109c-.167-.557-.355-.877-.333-.877a.878.878,0,0,1,.145.211,4.155,4.155,0,0,1,.281.64,4.339,4.339,0,0,1-.9,4.334,4.151,4.151,0,0,1-.513.478.842.842,0,0,1-.219.132Z" transform="translate(-102.295 -101.281)" fill="#455a64"/>
        <path id="Path_10857" data-name="Path 10857" d="M126.33,114.658a3.083,3.083,0,0,0,.4-.237,2.242,2.242,0,0,0,.776-.934l.127-.294-.026.32c-.039.439-.083.934-.132,1.474l-.1-.061a4.036,4.036,0,0,0,1.693-2.606,4.185,4.185,0,0,0,0-1.448,5.8,5.8,0,0,0-.439-1.272.534.534,0,0,1,.057.075,2.193,2.193,0,0,1,.136.237,3.83,3.83,0,0,1,.338.943,4.045,4.045,0,0,1-1.711,4.181l-.114.075v-.136c.057-.54.11-1.04.158-1.47l.1.026a2.237,2.237,0,0,1-.842.943,2.452,2.452,0,0,1-.311.154A.329.329,0,0,1,126.33,114.658Z" transform="translate(-98.708 -102.112)" fill="#455a64"/>
        <path id="Path_10858" data-name="Path 10858" d="M117.28,104.348a2.917,2.917,0,0,0-.711-.877,2.584,2.584,0,0,0-1.11-.513,2.715,2.715,0,0,0-1.478.132,3.18,3.18,0,0,0-1.242.842,3.812,3.812,0,0,0-.671,1.04,7.185,7.185,0,0,0-.333,1.1.987.987,0,0,1,.022-.311,3.9,3.9,0,0,1,.224-.829,3.773,3.773,0,0,1,.662-1.088,3.246,3.246,0,0,1,1.29-.877,2.812,2.812,0,0,1,1.553-.127,2.6,2.6,0,0,1,1.145.562,2.325,2.325,0,0,1,.54.671,2.066,2.066,0,0,1,.092.215C117.28,104.317,117.285,104.344,117.28,104.348Z" transform="translate(-90.514 -98.285)" fill="#455a64"/>
        <path id="Path_10859" data-name="Path 10859" d="M116.554,100.341a4.3,4.3,0,0,0-.847-.329,3.106,3.106,0,0,0-2.114.3,3.839,3.839,0,0,0-1.5,1.557c-.268.5-.355.847-.377.838a.768.768,0,0,1,.044-.246,3.82,3.82,0,0,1,.246-.636,3.733,3.733,0,0,1,1.518-1.632,3.036,3.036,0,0,1,2.193-.272,2.356,2.356,0,0,1,.627.268.785.785,0,0,1,.206.154Z" transform="translate(-90.507 -96.625)" fill="#455a64"/>
        <path id="Path_10860" data-name="Path 10860" d="M89.606,432.119l.311,8.436s-8.471,3.15-8.568,4.716H97.731l.057-13.161Z" transform="translate(-73.46 -283.139)" fill="#263238"/>
        <path id="Path_10861" data-name="Path 10861" d="M111.415,449.718a.667.667,0,0,1,.465.763.645.645,0,0,1-.755.465.706.706,0,0,1-.483-.812.662.662,0,0,1,.834-.4" transform="translate(-89.895 -293.013)" fill="#e0e0e0"/>
        <path id="Path_10862" data-name="Path 10862" d="M97.722,460.4l-.044-1.316-15.688.509s-.733.32-.649.834Z" transform="translate(-73.452 -298.278)" fill="#263238"/>
        <path id="Path_10863" data-name="Path 10863" d="M100.269,451.083c0,.079.4.114.8.368s.6.6.676.562-.044-.491-.526-.794S100.252,451,100.269,451.083Z" transform="translate(-84.08 -293.747)" fill="#fff"/>
        <path id="Path_10864" data-name="Path 10864" d="M96.36,452.75c0,.079.329.211.6.553s.351.693.439.689.127-.439-.215-.877S96.36,452.671,96.36,452.75Z" transform="translate(-81.886 -294.703)" fill="#fff"/>
        <path id="Path_10865" data-name="Path 10865" d="M93.35,455.722c.07,0,.184-.386,0-.82s-.579-.614-.614-.548.2.3.36.662S93.288,455.713,93.35,455.722Z" transform="translate(-79.849 -295.617)" fill="#fff"/>
        <path id="Path_10866" data-name="Path 10866" d="M100.6,446.407c.035.075.4-.035.851,0s.807.171.847.1-.3-.351-.829-.382S100.557,446.346,100.6,446.407Z" transform="translate(-84.262 -291.005)" fill="#fff"/>
        <path id="Path_10867" data-name="Path 10867" d="M141.488,433.89l.649,10.2L140.33,452.3a1.048,1.048,0,0,0,.877,1.259h0a1.035,1.035,0,0,0,.9-.307c1.5-1.557,6.975-7.317,6.883-8.059-.1-.877.026-10.8.026-10.8Z" transform="translate(-106.553 -284.138)" fill="#263238"/>
        <path id="Path_10868" data-name="Path 10868" d="M142.338,467.135l7.76-9.055v.439a1.575,1.575,0,0,1-.333,1.035c-.614.785-2.365,2.926-6.51,7.278a1.044,1.044,0,0,1-.934.307Z" transform="translate(-107.683 -297.716)" fill="#263238"/>
        <g id="Group_8498" data-name="Group 8498" transform="translate(39.959 157.048)" opacity="0.6">
          <path id="Path_10869" data-name="Path 10869" d="M154.692,450.631a.627.627,0,0,0-.14.833.61.61,0,0,0,.825.145.667.667,0,0,0,.14-.877.627.627,0,0,0-.877-.057" transform="translate(-154.452 -450.523)" fill="#fff"/>
        </g>
        <path id="Path_10870" data-name="Path 10870" d="M144.555,466.923a3.238,3.238,0,0,0-.93-.759,3.154,3.154,0,0,0-1.184-.175c0-.026.118-.11.355-.154a1.654,1.654,0,0,1,1.632.724C144.555,466.774,144.576,466.91,144.555,466.923Z" transform="translate(-107.751 -302.059)" fill="#fff"/>
        <path id="Path_10871" data-name="Path 10871" d="M143.266,470.637a8.778,8.778,0,0,0-.921-.4,9.843,9.843,0,0,0-1-.088,1.176,1.176,0,0,1,1.057-.127C143.007,470.168,143.318,470.607,143.266,470.637Z" transform="translate(-107.133 -304.378)" fill="#fff"/>
        <path id="Path_10872" data-name="Path 10872" d="M146.459,462.828a10.564,10.564,0,0,0-1.382-.719,10.988,10.988,0,0,0-1.527-.29A2.856,2.856,0,0,1,146.459,462.828Z" transform="translate(-108.374 -299.771)" fill="#fff"/>
        <path id="Path_10873" data-name="Path 10873" d="M146.952,456.637c-.026.061-.6-.154-1.316-.149s-1.316.206-1.316.14a2.6,2.6,0,0,1,2.667,0Z" transform="translate(-108.806 -296.695)" fill="#fff"/>
        <path id="Path_10874" data-name="Path 10874" d="M146.57,449.744a3.325,3.325,0,0,0-2.72.206.982.982,0,0,1,.316-.3,2.3,2.3,0,0,1,1-.32,2.238,2.238,0,0,1,1.04.167C146.46,449.621,146.583,449.722,146.57,449.744Z" transform="translate(-108.542 -292.802)" fill="#fff"/>
        <path id="Path_10875" data-name="Path 10875" d="M144.763,445.945a.851.851,0,0,1-.031-.386,2.746,2.746,0,0,1,.263-1.022,1.22,1.22,0,0,1,.487-.588.439.439,0,0,1,.478.075.654.654,0,0,1,.18.439,1.478,1.478,0,0,1-1.237,1.421,1.724,1.724,0,0,1-1.724-.829.61.61,0,0,1-.048-.491.439.439,0,0,1,.439-.237,1.443,1.443,0,0,1,.684.32,2.992,2.992,0,0,1,.728.768c.14.206.184.338.171.342a4.707,4.707,0,0,0-.991-.978,1.346,1.346,0,0,0-.605-.268.219.219,0,0,0-.228.127.439.439,0,0,0,.048.325,1.531,1.531,0,0,0,1.5.7,1.281,1.281,0,0,0,1.07-1.189.487.487,0,0,0-.114-.32.219.219,0,0,0-.259-.048,1.075,1.075,0,0,0-.439.491,3.948,3.948,0,0,0-.373,1.351Z" transform="translate(-108.121 -289.762)" fill="#fff"/>
        <path id="Path_10876" data-name="Path 10876" d="M82.425,267.536a36.262,36.262,0,0,0-1.035,10.643c.118,2.272,7.414,67.866,7.414,67.866l9.274-.833-1.6-61.329.386.347s5.528,25.8,5.9,29.884c.329,3.663,4.738,33.117,4.738,33.117l9-.439-2.04-37.236-2.729-33.779-1.092-9.844Z" transform="translate(-73.456 -189.861)" fill="#263238"/>
        <path id="Path_10877" data-name="Path 10877" d="M113.273,284.062a2.194,2.194,0,0,1-.439.233,4.974,4.974,0,0,1-1.29.417,2.79,2.79,0,0,1-.952,0,2.005,2.005,0,0,1-.983-.5,2.426,2.426,0,0,1-.579-1.07c-.11-.4-.171-.825-.246-1.25-.29-1.707-.478-3.264-.583-4.387-.053-.562-.083-1.022-.1-1.338a2.084,2.084,0,0,1,0-.5,2.443,2.443,0,0,1,.088.487c.044.36.1.807.167,1.316.145,1.127.355,2.676.645,4.387a3.958,3.958,0,0,0,.755,2.193,2.132,2.132,0,0,0,1.755.5,6.057,6.057,0,0,0,1.281-.342,1.968,1.968,0,0,1,.483-.154Z" transform="translate(-88.468 -195.328)" fill="#455a64"/>
        <path id="Path_10878" data-name="Path 10878" d="M112.272,276.341a.421.421,0,0,1,.215-.061.956.956,0,0,1,.575.2.987.987,0,1,1-1.513.544.877.877,0,0,1,.325-.513c.118-.088.2-.1.2-.088a1.149,1.149,0,0,0-.377.632.877.877,0,0,0,.18.728.768.768,0,0,0,.851.18.781.781,0,0,0,.553-.667.912.912,0,0,0-.316-.684A1.171,1.171,0,0,0,112.272,276.341Z" transform="translate(-90.393 -195.671)" fill="#455a64"/>
        <path id="Path_10879" data-name="Path 10879" d="M140.192,282.464a1.193,1.193,0,0,1-.355.044,6.582,6.582,0,0,1-.969,0,9.4,9.4,0,0,1-5.738-2.575,6.7,6.7,0,0,1-.654-.719c-.14-.18-.211-.285-.2-.294s.351.364.956.9a10.41,10.41,0,0,0,5.65,2.536A9.342,9.342,0,0,1,140.192,282.464Z" transform="translate(-102.046 -197.152)" fill="#455a64"/>
        <path id="Path_10880" data-name="Path 10880" d="M85.883,276.39a4.541,4.541,0,0,1-.579,1.04,11.8,11.8,0,0,1-1.842,2.193,11.641,11.641,0,0,1-2.312,1.676,4.461,4.461,0,0,1-1.079.483,11.033,11.033,0,0,1,1-.614,15.121,15.121,0,0,0,2.242-1.7,14.916,14.916,0,0,0,1.864-2.11A10.131,10.131,0,0,1,85.883,276.39Z" transform="translate(-72.742 -195.732)" fill="#455a64"/>
        <path id="Path_10881" data-name="Path 10881" d="M67.3,191.93c-1.377,4.023-1.224,3.676-3.8,15.7-.474,2.22.364,5.7,2.365,6.756s5.554-.105,6.743-2.036l1.913-18.14Z" transform="translate(-63.365 -148.324)" fill="#ffbf9d"/>
        <path id="Path_10882" data-name="Path 10882" d="M102.03,195.452l-.057-9.559.039-.939,9.7-2.264s-1.9-6.273-3.65-13.016a10.431,10.431,0,0,0-5.177-6.273h0l-.18-.083h0L93.37,159.37c-1.886,2.009-4.633,3.624-7.278,2.852a8.287,8.287,0,0,1-3.843-2.632l-6.286,2.163h0a8.2,8.2,0,0,0-4.352,3.51c-1.316,2.347-5.523,13.029-5.611,13.248l7.791.7S72.409,204.485,72.914,209c0,0,1.9,1.316,6.668,1.535,9.686.439,24.1-.232,24.1-.232-.228-1.456-.465-3.891-.6-5.124Z" transform="translate(-64.844 -130.048)" fill="#fff"/>
        <path id="Path_10883" data-name="Path 10883" d="M83.05,183.18c.039,0-.167,6.028-.461,13.459S82.023,210.1,82,210.1s.167-6.028.439-13.463S83.01,183.176,83.05,183.18Z" transform="translate(-73.822 -143.413)" fill="#263238"/>
        <path id="Path_10884" data-name="Path 10884" d="M145.684,187c-.066,0,.127,5.352.439,11.946s.619,11.937.689,11.932-.127-5.348-.439-11.946S145.754,187,145.684,187Z" transform="translate(-109.564 -145.557)" fill="#263238"/>
        <path id="Path_10885" data-name="Path 10885" d="M147.319,213.29c-.316-2.373-.579-4.47-.579-4.47l-7.756,1.8.333,1.25-6-6.093-.952.083L129.35,209a75.892,75.892,0,0,0,4.163,7.721c1.992,2.816,5.12,7.107,9.406,6.747C146.88,223.135,147.885,217.546,147.319,213.29Z" transform="translate(-100.403 -156.098)" fill="#ffbf9d"/>
        <path id="Path_10886" data-name="Path 10886" d="M155.958,222.7a6.58,6.58,0,0,0-1.7-1.566,6.892,6.892,0,0,0-2.027-1.123c-.035.066.877.583,1.878,1.316S155.909,222.752,155.958,222.7Z" transform="translate(-113.245 -164.086)" fill="#ff9a6c"/>
        <path id="Path_10887" data-name="Path 10887" d="M114.53,185.92l2.667-1.36,3.457,1.1,1.711,1.579L125,193.869l2.11,2.672-3.724,4.826-2.356-4.3a7.463,7.463,0,0,1-2.8-2.132c-.8-1.255-1.158-1.948-1.158-1.948s-1.154-.553-1.369-1.088a2.553,2.553,0,0,1-.2-.943l.583-.855a2.15,2.15,0,0,1,.175-1.088,1.066,1.066,0,0,1,.439-.364s-.171-.719.1-.978a8.48,8.48,0,0,1,1.6-.728h0l-1.163-.662S114.675,187.1,114.53,185.92Z" transform="translate(-92.085 -144.187)" fill="#ffbf9d"/>
        <path id="Path_10888" data-name="Path 10888" d="M121.3,193.11c0,.035-.408.044-.877.149s-.877.254-.877.224a2.1,2.1,0,0,1,.877-.333A1.987,1.987,0,0,1,121.3,193.11Z" transform="translate(-94.902 -148.969)" fill="#ff9a6c"/>
        <path id="Path_10889" data-name="Path 10889" d="M119.765,196.474a7.021,7.021,0,0,1-.772.1,6.487,6.487,0,0,1-.763.132,1.68,1.68,0,0,1,.746-.246A1.755,1.755,0,0,1,119.765,196.474Z" transform="translate(-94.161 -150.845)" fill="#ff9a6c"/>
        <path id="Path_10890" data-name="Path 10890" d="M119.1,200.99c-.031,0-.053-.154-.048-.342s.031-.338.061-.338.053.154.053.342S119.128,200.99,119.1,200.99Z" transform="translate(-94.621 -153.028)" fill="#ff9a6c"/>
        <path id="Path_10891" data-name="Path 10891" d="M119.321,202.2a1.492,1.492,0,0,0-.246-.614,1.663,1.663,0,0,0-.535-.39.541.541,0,0,1,.211,0,.877.877,0,0,1,.439.3.912.912,0,0,1,.189.474C119.365,202.123,119.334,202.2,119.321,202.2Z" transform="translate(-94.335 -153.521)" fill="#ff9a6c"/>
        <path id="Path_10892" data-name="Path 10892" d="M123.667,197.812a1.623,1.623,0,0,0-.465-.439,1.755,1.755,0,0,0-.632-.158.43.43,0,0,1,.2-.057.912.912,0,0,1,.842.469C123.675,197.729,123.68,197.808,123.667,197.812Z" transform="translate(-96.597 -151.258)" fill="#ff9a6c"/>
        <path id="Path_10893" data-name="Path 10893" d="M126.532,194.42a1.622,1.622,0,0,0-.439-.439,2.045,2.045,0,0,0-.583-.2.422.422,0,0,1,.193-.039.93.93,0,0,1,.439.145.877.877,0,0,1,.32.347C126.541,194.341,126.545,194.416,126.532,194.42Z" transform="translate(-98.248 -149.34)" fill="#ff9a6c"/>
        <path id="Path_10894" data-name="Path 10894" d="M128.616,192.165a1.146,1.146,0,0,0-.031-.228,1.044,1.044,0,0,0-.193-.487,1.057,1.057,0,0,0-.412-.329c-.127-.057-.215-.075-.211-.092s.1-.026.237,0a.921.921,0,0,1,.478.333.943.943,0,0,1,.18.553C128.665,192.082,128.63,192.169,128.616,192.165Z" transform="translate(-99.516 -147.809)" fill="#ff9a6c"/>
        <path id="Path_10895" data-name="Path 10895" d="M124.016,189.632c0,.039-.557.048-1.228.149a11.515,11.515,0,0,0-1.2.311,2.768,2.768,0,0,1,1.18-.439,5.346,5.346,0,0,1,.877-.066A1.057,1.057,0,0,1,124.016,189.632Z" transform="translate(-96.047 -147.008)" fill="#ff9a6c"/>
        <g id="Group_8499" data-name="Group 8499" transform="translate(8.276 54.007)" opacity="0.3">
          <path id="Path_10896" data-name="Path 10896" d="M94.333,219.233a4.729,4.729,0,0,0-.658-2.193c-.781-1.1-2.312-1.316-3.654-1.268a10.589,10.589,0,0,1-4.01-.132L82.23,226.862a5.611,5.611,0,0,0,3.409-2.5,6.11,6.11,0,0,1,1.25-1.8,4.784,4.784,0,0,1,2.939-.54,11.844,11.844,0,0,0,3.137-.461,2.093,2.093,0,0,0,1.154-.658A2.251,2.251,0,0,0,94.333,219.233Z" transform="translate(-82.23 -215.64)"/>
        </g>
        <path id="Path_10897" data-name="Path 10897" d="M87.613,191.662l1.176,12.49a1.755,1.755,0,0,0,.772,1.435l7.576-.158a3.014,3.014,0,0,0,.579-2.123l-.842-11.954c-.048-.719-.316-1.237-.64-1.246l-7.98-.184C87.845,189.911,87.529,190.771,87.613,191.662Z" transform="translate(-76.968 -147.196)" fill="#263238"/>
        <path id="Path_10898" data-name="Path 10898" d="M84.837,197.139a1.092,1.092,0,0,1,.026-1.351,1.676,1.676,0,0,1,1.316-.579,3.676,3.676,0,0,1,1.421.329,9.273,9.273,0,0,1,1.571.847,1.531,1.531,0,0,1,.785.961c.061.439-.408.877-.772.671a1.794,1.794,0,0,1,1.018,1.272c.066.531-.228.812-.746.952a.807.807,0,0,1,.439,1.04.921.921,0,0,1-1.163.325,2.672,2.672,0,0,1-.987-.877,3.031,3.031,0,0,1,.136,1.9c-1.132-.439-2.246-1.671-1.908-2.865a1.619,1.619,0,0,1-.439-1.935,1.584,1.584,0,0,1-.912-1.347" transform="translate(-75.294 -150.164)" fill="#ffbf9d"/>
        <path id="Path_10899" data-name="Path 10899" d="M74.826,197.13l-.092,5.339-1.386,2.084L67,210.234s.939,7.717,3.808,6.874,3.558-1.391,5.264-4.5a40.469,40.469,0,0,0,1.987-5.935,16.144,16.144,0,0,0,.039-3.852Z" transform="translate(-65.406 -151.243)" fill="#ffbf9d"/>
        <path id="Path_10900" data-name="Path 10900" d="M91.137,205.1a4.05,4.05,0,0,1-.487-.39,3.316,3.316,0,0,0-1.281-.693,1.79,1.79,0,0,0-.79,0A1.448,1.448,0,0,0,88,204.3a1.9,1.9,0,0,0-.386.461.421.421,0,0,1,.048-.162,1.131,1.131,0,0,1,.281-.368,1.478,1.478,0,0,1,.614-.32,1.825,1.825,0,0,1,.842,0,3.071,3.071,0,0,1,1.316.75A2.447,2.447,0,0,1,91.137,205.1Z" transform="translate(-76.974 -155.019)" fill="#ff9a6c"/>
        <path id="Path_10901" data-name="Path 10901" d="M90.446,200.5a2.63,2.63,0,0,1-.592-.263c-.175-.088-.386-.2-.627-.294a5.47,5.47,0,0,0-.816-.228,2.456,2.456,0,0,0-.834-.031,1.54,1.54,0,0,0-.619.254,1.592,1.592,0,0,0-.439.469.439.439,0,0,1,.053-.167,1.136,1.136,0,0,1,.307-.373,1.5,1.5,0,0,1,.658-.294,2.263,2.263,0,0,1,.877,0,4.664,4.664,0,0,1,.834.246,5.585,5.585,0,0,1,.632.32,4.966,4.966,0,0,1,.566.36Z" transform="translate(-76.362 -152.591)" fill="#ff9a6c"/>
        <path id="Path_10902" data-name="Path 10902" d="M68.19,219.917a5.1,5.1,0,0,1-.079-1.987,6.019,6.019,0,0,1,.75-2.022,9.848,9.848,0,0,1,1.676-2.053c.684-.662,1.386-1.237,2.014-1.755a21.623,21.623,0,0,0,1.606-1.513,9.577,9.577,0,0,0,.926-1.2,2.443,2.443,0,0,0,.263-.478,3.783,3.783,0,0,0-.329.439,11.431,11.431,0,0,1-.97,1.11c-.439.439-.987.939-1.623,1.47s-1.316,1.106-2.031,1.755a9.567,9.567,0,0,0-1.7,2.11,5.953,5.953,0,0,0-.75,2.106A4.154,4.154,0,0,0,68,219.39a2.816,2.816,0,0,0,.114.39A1.056,1.056,0,0,0,68.19,219.917Z" transform="translate(-65.911 -157.855)" fill="#ff9a6c"/>
      </g>
    </g>
  </g>
</svg>
