<svg xmlns="http://www.w3.org/2000/svg" width="146.734" height="143.694" viewBox="0 0 146.734 143.694">
  <g id="Group_8650" data-name="Group 8650" transform="translate(-6.204 -669.306)">
    <path id="Path_11018" data-name="Path 11018" d="M362.209,95.841a4.737,4.737,0,0,1-1.949,0A4.737,4.737,0,0,1,362.209,95.841Z" transform="translate(-343.196 573.566)" fill="#ebebeb"/>
    <path id="Path_11019" data-name="Path 11019" d="M372.209,95.841a4.737,4.737,0,0,1-1.949,0A4.737,4.737,0,0,1,372.209,95.841Z" transform="translate(-349.297 573.566)" fill="#ebebeb"/>
    <path id="Path_11020" data-name="Path 11020" d="M382.209,95.841a4.737,4.737,0,0,1-1.949,0A4.736,4.736,0,0,1,382.209,95.841Z" transform="translate(-355.399 573.566)" fill="#ebebeb"/>
    <path id="Path_11021" data-name="Path 11021" d="M392.209,95.841a4.737,4.737,0,0,1-1.949,0A4.737,4.737,0,0,1,392.209,95.841Z" transform="translate(-361.501 573.566)" fill="#ebebeb"/>
    <path id="Path_11022" data-name="Path 11022" d="M402.209,95.841a4.737,4.737,0,0,1-1.949,0,4.736,4.736,0,0,1,1.949,0Z" transform="translate(-367.602 573.566)" fill="#ebebeb"/>
    <path id="Path_11023" data-name="Path 11023" d="M412.209,95.841a4.737,4.737,0,0,1-1.949,0A4.737,4.737,0,0,1,412.209,95.841Z" transform="translate(-373.704 573.566)" fill="#ebebeb"/>
    <path id="Path_11024" data-name="Path 11024" d="M422.209,95.841a4.737,4.737,0,0,1-1.949,0A4.737,4.737,0,0,1,422.209,95.841Z" transform="translate(-379.806 573.566)" fill="#ebebeb"/>
    <path id="Path_11025" data-name="Path 11025" d="M432.209,95.841a4.737,4.737,0,0,1-1.949,0A4.737,4.737,0,0,1,432.209,95.841Z" transform="translate(-385.907 573.566)" fill="#ebebeb"/>
    <path id="Path_11026" data-name="Path 11026" d="M442.209,95.841a4.737,4.737,0,0,1-1.949,0A4.737,4.737,0,0,1,442.209,95.841Z" transform="translate(-392.009 573.566)" fill="#ebebeb"/>
    <path id="Path_11027" data-name="Path 11027" d="M452.209,95.841a4.736,4.736,0,0,1-1.949,0A4.736,4.736,0,0,1,452.209,95.841Z" transform="translate(-398.11 573.566)" fill="#ebebeb"/>
    <path id="Path_11028" data-name="Path 11028" d="M462.209,95.841a4.737,4.737,0,0,1-1.949,0A4.737,4.737,0,0,1,462.209,95.841Z" transform="translate(-404.212 573.566)" fill="#ebebeb"/>
    <path id="Path_11029" data-name="Path 11029" d="M472.209,95.841a4.737,4.737,0,0,1-1.949,0A4.737,4.737,0,0,1,472.209,95.841Z" transform="translate(-410.314 573.566)" fill="#ebebeb"/>
    <path id="Path_11030" data-name="Path 11030" d="M482.209,95.841a4.737,4.737,0,0,1-1.949,0A4.737,4.737,0,0,1,482.209,95.841Z" transform="translate(-416.415 573.566)" fill="#ebebeb"/>
    <path id="Path_11031" data-name="Path 11031" d="M492.209,95.841a4.737,4.737,0,0,1-1.949,0A4.737,4.737,0,0,1,492.209,95.841Z" transform="translate(-422.517 573.566)" fill="#ebebeb"/>
    <path id="Path_11032" data-name="Path 11032" d="M502.209,95.841a4.737,4.737,0,0,1-1.949,0A4.737,4.737,0,0,1,502.209,95.841Z" transform="translate(-428.618 573.566)" fill="#ebebeb"/>
    <path id="Path_11033" data-name="Path 11033" d="M512.209,95.841a4.737,4.737,0,0,1-1.949,0A4.737,4.737,0,0,1,512.209,95.841Z" transform="translate(-434.72 573.566)" fill="#ebebeb"/>
    <path id="Path_11034" data-name="Path 11034" d="M522.209,95.841a4.736,4.736,0,0,1-1.949,0A4.736,4.736,0,0,1,522.209,95.841Z" transform="translate(-440.822 573.566)" fill="#ebebeb"/>
    <path id="Path_11035" data-name="Path 11035" d="M532.209,95.841a4.737,4.737,0,0,1-1.949,0A4.737,4.737,0,0,1,532.209,95.841Z" transform="translate(-446.923 573.566)" fill="#ebebeb"/>
    <path id="Path_11036" data-name="Path 11036" d="M542.209,95.841a4.736,4.736,0,0,1-1.949,0A4.736,4.736,0,0,1,542.209,95.841Z" transform="translate(-453.025 573.566)" fill="#ebebeb"/>
    <path id="Path_11037" data-name="Path 11037" d="M552.209,95.841a4.736,4.736,0,0,1-1.949,0A4.736,4.736,0,0,1,552.209,95.841Z" transform="translate(-459.126 573.566)" fill="#ebebeb"/>
    <path id="Path_11038" data-name="Path 11038" d="M562.209,95.841a4.737,4.737,0,0,1-1.949,0A4.737,4.737,0,0,1,562.209,95.841Z" transform="translate(-465.228 573.566)" fill="#ebebeb"/>
    <path id="Path_11039" data-name="Path 11039" d="M572.209,95.841a4.736,4.736,0,0,1-1.949,0A4.736,4.736,0,0,1,572.209,95.841Z" transform="translate(-471.33 573.566)" fill="#ebebeb"/>
    <path id="Path_11040" data-name="Path 11040" d="M582.209,95.841a4.736,4.736,0,0,1-1.949,0A4.736,4.736,0,0,1,582.209,95.841Z" transform="translate(-477.431 573.566)" fill="#ebebeb"/>
    <path id="Path_11041" data-name="Path 11041" d="M587.643,100.359a4.735,4.735,0,0,1,0-1.949,4.735,4.735,0,0,1,0,1.949Z" transform="translate(-481.867 571.937)" fill="#ebebeb"/>
    <path id="Path_11042" data-name="Path 11042" d="M587.643,110.359a4.735,4.735,0,0,1,0-1.949,4.735,4.735,0,0,1,0,1.949Z" transform="translate(-481.867 565.835)" fill="#ebebeb"/>
    <path id="Path_11043" data-name="Path 11043" d="M587.643,120.359a4.735,4.735,0,0,1,0-1.949,4.735,4.735,0,0,1,0,1.949Z" transform="translate(-481.867 559.733)" fill="#ebebeb"/>
    <path id="Path_11044" data-name="Path 11044" d="M587.661,130.359a4.739,4.739,0,0,1,0-1.949A4.737,4.737,0,0,1,587.661,130.359Z" transform="translate(-481.886 553.632)" fill="#ebebeb"/>
    <path id="Path_11045" data-name="Path 11045" d="M587.661,140.359a4.739,4.739,0,0,1,0-1.949,4.737,4.737,0,0,1,0,1.949Z" transform="translate(-481.886 547.53)" fill="#ebebeb"/>
    <path id="Path_11046" data-name="Path 11046" d="M588.41,149.6c0,.051-.324.09-.76.1h-.1v-.316a2.458,2.458,0,0,1,.1-.975,2.382,2.382,0,0,1,.1.975v.214l-.1-.1A1.809,1.809,0,0,1,588.41,149.6Z" transform="translate(-481.874 541.428)" fill="#ebebeb"/>
    <path id="Path_11047" data-name="Path 11047" d="M596.719,151.3a4.736,4.736,0,0,1-1.949,0A4.736,4.736,0,0,1,596.719,151.3Z" transform="translate(-486.285 539.726)" fill="#ebebeb"/>
    <path id="Path_11048" data-name="Path 11048" d="M606.719,151.3a4.736,4.736,0,0,1-1.949,0A4.737,4.737,0,0,1,606.719,151.3Z" transform="translate(-492.386 539.726)" fill="#ebebeb"/>
    <path id="Path_11049" data-name="Path 11049" d="M616.719,151.3a4.737,4.737,0,0,1-1.949,0A4.737,4.737,0,0,1,616.719,151.3Z" transform="translate(-498.488 539.726)" fill="#ebebeb"/>
    <path id="Path_11050" data-name="Path 11050" d="M626.719,151.3a4.736,4.736,0,0,1-1.949,0A4.736,4.736,0,0,1,626.719,151.3Z" transform="translate(-504.59 539.726)" fill="#ebebeb"/>
    <path id="Path_11051" data-name="Path 11051" d="M636.719,151.3a4.737,4.737,0,0,1-1.949,0A4.737,4.737,0,0,1,636.719,151.3Z" transform="translate(-510.691 539.726)" fill="#ebebeb"/>
    <path id="Path_11052" data-name="Path 11052" d="M646.719,151.3a4.737,4.737,0,0,1-1.949,0A4.737,4.737,0,0,1,646.719,151.3Z" transform="translate(-516.793 539.726)" fill="#ebebeb"/>
    <path id="Path_11053" data-name="Path 11053" d="M656.719,151.3a4.736,4.736,0,0,1-1.949,0A4.736,4.736,0,0,1,656.719,151.3Z" transform="translate(-522.895 539.726)" fill="#ebebeb"/>
    <path id="Path_11054" data-name="Path 11054" d="M666.719,151.3a4.737,4.737,0,0,1-1.949,0A4.737,4.737,0,0,1,666.719,151.3Z" transform="translate(-528.996 539.726)" fill="#ebebeb"/>
    <path id="Path_11055" data-name="Path 11055" d="M673.5,154.529a4.737,4.737,0,0,1,0-1.949A4.737,4.737,0,0,1,673.5,154.529Z" transform="translate(-534.262 538.884)" fill="#ebebeb"/>
    <path id="Path_11056" data-name="Path 11056" d="M673.5,164.529a4.737,4.737,0,0,1,0-1.949A4.737,4.737,0,0,1,673.5,164.529Z" transform="translate(-534.262 532.782)" fill="#ebebeb"/>
    <path id="Path_11057" data-name="Path 11057" d="M673.5,174.529a4.737,4.737,0,0,1,0-1.949A4.737,4.737,0,0,1,673.5,174.529Z" transform="translate(-534.262 526.681)" fill="#ebebeb"/>
    <path id="Path_11058" data-name="Path 11058" d="M673.5,184.529a4.737,4.737,0,0,1,0-1.949A4.737,4.737,0,0,1,673.5,184.529Z" transform="translate(-534.262 520.579)" fill="#ebebeb"/>
    <path id="Path_11059" data-name="Path 11059" d="M673.5,194.529a4.737,4.737,0,0,1,0-1.949A4.737,4.737,0,0,1,673.5,194.529Z" transform="translate(-534.262 514.478)" fill="#ebebeb"/>
    <path id="Path_11060" data-name="Path 11060" d="M673.5,204.529a4.737,4.737,0,0,1,0-1.949A4.737,4.737,0,0,1,673.5,204.529Z" transform="translate(-534.262 508.376)" fill="#ebebeb"/>
    <path id="Path_11061" data-name="Path 11061" d="M673.5,214.529a4.737,4.737,0,0,1,0-1.949A4.737,4.737,0,0,1,673.5,214.529Z" transform="translate(-534.262 502.274)" fill="#ebebeb"/>
    <path id="Path_11062" data-name="Path 11062" d="M673.5,224.529a4.737,4.737,0,0,1,0-1.949,4.737,4.737,0,0,1,0,1.949Z" transform="translate(-534.262 496.173)" fill="#ebebeb"/>
    <path id="Path_11063" data-name="Path 11063" d="M673.5,234.529a4.737,4.737,0,0,1,0-1.949,4.737,4.737,0,0,1,0,1.949Z" transform="translate(-534.262 490.071)" fill="#ebebeb"/>
    <path id="Path_11064" data-name="Path 11064" d="M673.5,244.529a4.737,4.737,0,0,1,0-1.949,4.737,4.737,0,0,1,0,1.949Z" transform="translate(-534.262 483.969)" fill="#ebebeb"/>
    <path id="Path_11065" data-name="Path 11065" d="M673.5,254.529a4.737,4.737,0,0,1,0-1.949A4.737,4.737,0,0,1,673.5,254.529Z" transform="translate(-534.262 477.868)" fill="#ebebeb"/>
    <path id="Path_11066" data-name="Path 11066" d="M367.389,112.733s-3.025-1.676-5.992,5.481a89.293,89.293,0,0,0-3.98,11.227s-.815,1.516-1.879.651-2.631-3.431-4.288-2.819c-1.708.639-2.129,2.631-1.559,5.458s1.559,9.095,1.641,9.66-.172,1.407-.99.932-5.684-5.1-7.742-2.663.78,10.089,1.092,10.915.156,1.22-.234,1.466-1.883-1.466-3.318-2.729-3.325-2.468-4.4-.963-.986,7.407,5.352,16.5l3.208,4.023,5.126-.69c10.873-2.144,15.028-6.331,15.305-8.159s-1.918-2.222-3.828-2.292-4.167.105-4.288-.343.055-.819.85-1.22,8.159-3.922,8.374-7.107-6.5-3.232-7.407-3.462-.515-1.017-.066-1.357,5.52-4.16,7.89-5.812,3.454-3.38,2.667-5.025c-.756-1.583-3.664-.826-5.033-.943s-.9-1.77-.9-1.77a89.533,89.533,0,0,0,4.931-10.845c2.834-7.208-.593-8.109-.593-8.109" transform="translate(-327.92 563.301)" fill="#ebebeb"/>
    <path id="Path_11067" data-name="Path 11067" d="M359,179.229c2.1-5.286,5.068-12.564,8.374-20.6s6.284-15.3,8.417-20.572c1.06-2.631,1.918-4.764,2.518-6.237l.686-1.7c.078-.187.136-.335.183-.441a1.594,1.594,0,0,1,.066-.148.4.4,0,0,1-.051.156c-.051.1-.094.253-.168.444-.152.39-.37.975-.655,1.711-.573,1.485-1.415,3.625-2.468,6.269-2.1,5.286-5.068,12.564-8.37,20.591s-6.284,15.3-8.417,20.576" transform="translate(-342.427 552.942)" fill="#e0e0e0"/>
    <path id="Path_11068" data-name="Path 11068" d="M381.61,159.78a1.642,1.642,0,0,1,.16.335c.094.222.218.546.366.943.3.8.682,1.922,1.08,3.162s.737,2.339,1.01,3.185l.308.963a1.459,1.459,0,0,1,.1.359,1.64,1.64,0,0,1-.16-.335c-.094-.222-.218-.546-.363-.947-.292-.8-.659-1.926-1.06-3.169l-1.029-3.173c-.121-.39-.226-.7-.312-.963a1.46,1.46,0,0,1-.1-.359Z" transform="translate(-356.223 534.491)" fill="#e0e0e0"/>
    <path id="Path_11069" data-name="Path 11069" d="M390.59,176.887c0-.047,2.253-.939,5.068-1.992s5.115-1.875,5.13-1.828-2.249.939-5.068,1.992S390.606,176.938,390.59,176.887Z" transform="translate(-361.702 526.385)" fill="#e0e0e0"/>
    <path id="Path_11070" data-name="Path 11070" d="M376.15,212.161a1.559,1.559,0,0,1,.39-.051l1.029-.082c.869-.066,2.07-.164,3.392-.32s2.511-.331,3.372-.468l1.021-.16a1.313,1.313,0,0,1,.39-.035,1.821,1.821,0,0,1-.366.105c-.238.055-.585.129-1.014.214-.854.164-2.047.363-3.372.518s-2.53.234-3.4.269c-.437,0-.78.027-1.033.023a1.764,1.764,0,0,1-.405-.016Z" transform="translate(-352.891 503.212)" fill="#e0e0e0"/>
    <path id="Path_11071" data-name="Path 11071" d="M363.44,194.81a1.446,1.446,0,0,1,.226.269c.133.179.327.444.561.78.468.655,1.107,1.559,1.8,2.585s1.314,1.949,1.758,2.616c.222.335.39.612.515.8a1.389,1.389,0,0,1,.172.308,2.886,2.886,0,0,1-.226-.269c-.136-.179-.327-.444-.565-.78-.468-.659-1.1-1.559-1.8-2.585s-1.314-1.949-1.758-2.616c-.218-.335-.39-.612-.515-.8A1.257,1.257,0,0,1,363.44,194.81Z" transform="translate(-345.136 513.117)" fill="#e0e0e0"/>
    <path id="Path_11072" data-name="Path 11072" d="M347.21,220.59a2.141,2.141,0,0,1,.285.347c.191.265.437.593.725.99.6.838,1.431,2,2.339,3.294s1.715,2.468,2.292,3.325c.273.39.5.748.678,1.017a2.726,2.726,0,0,1,.23.39,1.916,1.916,0,0,1-.285-.347l-.725-.986c-.6-.838-1.431-2-2.339-3.294s-1.711-2.468-2.288-3.325l-.678-1.017A1.949,1.949,0,0,1,347.21,220.59Z" transform="translate(-335.233 497.387)" fill="#e0e0e0"/>
    <path id="Path_11073" data-name="Path 11073" d="M363.75,241.186a2.612,2.612,0,0,1,.476-.078l1.3-.148c1.1-.125,2.616-.3,4.288-.542s3.177-.5,4.265-.69l1.29-.226a2.619,2.619,0,0,1,.479-.062,2.516,2.516,0,0,1-.464.129c-.3.074-.741.172-1.283.281-1.084.226-2.592.5-4.265.741s-3.2.39-4.288.5c-.55.047-1,.078-1.306.094A2.689,2.689,0,0,1,363.75,241.186Z" transform="translate(-345.325 485.885)" fill="#e0e0e0"/>
    <path id="Path_11074" data-name="Path 11074" d="M665.918,260.569a13.7,13.7,0,1,0-25.507,6.92h0l.039.051c.522.885,1.17,1.516,1.848,2.448l7.953,10.526a2.468,2.468,0,0,0,3.945,0l7.824-10.358a29.649,29.649,0,0,0,1.988-2.639l.027-.035h0A13.645,13.645,0,0,0,665.918,260.569Zm-13.7,5.965a6.031,6.031,0,1,1,6.027-6.03,6.031,6.031,0,0,1-6.027,6.03Z" transform="translate(-512.979 481.368)" fill="#f5f5f5"/>
    <path id="Path_11075" data-name="Path 11075" d="M542.9,124.813v16.108a.628.628,0,0,0,.628.628H577.3a.624.624,0,0,0,.628-.635l-.074-5.894a.67.67,0,0,0-.125-.39l-4.846-6.475a.628.628,0,0,0-.5-.249l-5.583-.043a.631.631,0,0,1-.624-.628V124.8a.628.628,0,0,0-.628-.628H543.527a.628.628,0,0,0-.628.643Z" transform="translate(-454.635 556.219)" fill="#f5f5f5"/>
    <path id="Path_11076" data-name="Path 11076" d="M606.65,136.548v5.169a.359.359,0,0,0,.366.359l7.458-.133a.359.359,0,0,0,.292-.561l-3.509-5.142a.355.355,0,0,0-.3-.16l-3.972.109a.359.359,0,0,0-.331.359Z" transform="translate(-493.534 548.952)" fill="#ebebeb"/>
    <rect id="Rectangle_591" data-name="Rectangle 591" width="36.384" height="1.123" transform="translate(87.586 698.259)" fill="#f5f5f5"/>
    <circle id="Ellipse_73" data-name="Ellipse 73" cx="3.598" cy="3.598" r="3.598" transform="translate(90.929 698.688) rotate(-45)" fill="#ebebeb"/>
    <path id="Path_11077" data-name="Path 11077" d="M561.594,167.8a2.117,2.117,0,1,1-2.117-2.117A2.117,2.117,0,0,1,561.594,167.8Z" transform="translate(-463.459 530.891)" fill="#fafafa"/>
    <path id="Path_11078" data-name="Path 11078" d="M602.294,141.573c-.09,0-.164-3.9-.164-8.682s.074-8.682.164-8.682.164,3.9.164,8.682S602.383,141.573,602.294,141.573Z" transform="translate(-490.776 556.194)" fill="#ebebeb"/>
    <circle id="Ellipse_74" data-name="Ellipse 74" cx="3.598" cy="3.598" r="3.598" transform="translate(110.543 698.686) rotate(-45)" fill="#ebebeb"/>
    <path id="Path_11079" data-name="Path 11079" d="M611.891,167.8a2.121,2.121,0,1,1-2.117-2.117,2.121,2.121,0,0,1,2.117,2.117Z" transform="translate(-494.144 530.891)" fill="#fafafa"/>
    <path id="Path_11080" data-name="Path 11080" d="M609.49,153.824c0,.09-.515.164-1.169.164s-1.15-.074-1.15-.164.515-.164,1.15-.164S609.49,153.73,609.49,153.824Z" transform="translate(-493.851 538.225)" fill="#ebebeb"/>
    <path id="Path_11088" data-name="Path 11088" d="M554.571,252.13s6.288,1.06,6.795,1.2,2.5,1.08,2.6,1.688a18.249,18.249,0,0,1,0,2.4s-.363.292-.585-.292a5.97,5.97,0,0,1-.191-1.743l-1.115-.429.608,1.08.1,2.53s-.78-.07-.932-.674a5.967,5.967,0,0,1-.148-1.283l-.811-.686.608.823.2,1.821s-.593.195-.78-.211a6.276,6.276,0,0,1-.2-1.61l-2.292-.8-1.517.846L554.08,255.2Z" transform="translate(-461.457 478.142)" fill="#ffbe9d"/>
    <path id="Path_11089" data-name="Path 11089" d="M493.966,212.26c.031.125,7.578,10.526,7.578,10.526L516.71,227.5l-.69,5.7-18.584-3.742-6.6-7.571Z" transform="translate(-422.871 502.47)" fill="#ca1221"/>
    <g id="Group_8638" data-name="Group 8638" transform="translate(67.969 714.73)" opacity="0.2">
      <path id="Path_11090" data-name="Path 11090" d="M493.966,212.26c.031.125,7.578,10.526,7.578,10.526L516.71,227.5l-.69,5.7-18.584-3.742-6.6-7.571Z" transform="translate(-490.84 -212.26)"/>
    </g>
    <rect id="Rectangle_592" data-name="Rectangle 592" width="33.362" height="6.039" rx="3.019" transform="translate(12.507 729.033)" fill="#f5f5f5"/>
    <path id="Path_11091" data-name="Path 11091" d="M380.589,254.775a1.057,1.057,0,0,0,.195-.027,1.17,1.17,0,0,0,.951-1.025V249.9a1.17,1.17,0,0,0-.39-.834,1.134,1.134,0,0,0-.441-.23,1.788,1.788,0,0,0-.526-.035h-3.614l-27.137.031a1.092,1.092,0,0,0-.807.355,1.119,1.119,0,0,0-.281.838v3.411a1.629,1.629,0,0,0,.039.444,1.1,1.1,0,0,0,.932.8h7.664l12.2.023,8.226.031,2.238.02h0l-2.238.019-8.226.031-12.2.023h-7.715a1.33,1.33,0,0,1-.483-.156,1.29,1.29,0,0,1-.616-.78,1.582,1.582,0,0,1-.047-.5V250a1.345,1.345,0,0,1,.339-.975,1.279,1.279,0,0,1,.955-.421l27.137.031h3.614a2.245,2.245,0,0,1,.557.047,1.232,1.232,0,0,1,.483.257,1.255,1.255,0,0,1,.433.916v2.542c0,.487,0,.912-.02,1.294a1.232,1.232,0,0,1-.472.815,1.169,1.169,0,0,1-.538.222A.694.694,0,0,1,380.589,254.775Z" transform="translate(-335.905 480.296)" fill="#263238"/>
    <circle id="Ellipse_75" data-name="Ellipse 75" cx="15.94" cy="15.94" r="15.94" transform="translate(111.362 781.154) rotate(-2.75)" fill="#263238"/>
    <path id="Path_11092" data-name="Path 11092" d="M604.077,420.84v.043a15.94,15.94,0,1,0,31.877.46s0-.027,0-.043Z" transform="translate(-491.963 375.202)" fill="#263238"/>
    <path id="Path_11093" data-name="Path 11093" d="M616.248,403.857A11.192,11.192,0,1,0,627.6,392.828a11.192,11.192,0,0,0-11.352,11.029Z" transform="translate(-499.389 392.295)" fill="#fafafa"/>
    <path id="Path_11094" data-name="Path 11094" d="M627.6,392.828a11.192,11.192,0,0,0-11.352,11.029l22.381.324A11.192,11.192,0,0,0,627.6,392.828Z" transform="translate(-499.391 392.295)" fill="#e0e0e0"/>
    <path id="Path_11095" data-name="Path 11095" d="M627.469,410.766a6.818,6.818,0,1,0,6.916-6.717,6.818,6.818,0,0,0-6.916,6.717Z" transform="translate(-506.236 385.448)" fill="#263238"/>
    <path id="Path_11096" data-name="Path 11096" d="M608.2,360.592s16.319-4.935,23.067,12.794l-34.15,10.58Z" transform="translate(-487.719 412.348)" fill="#ca1221"/>
    <circle id="Ellipse_76" data-name="Ellipse 76" cx="15.94" cy="15.94" r="15.94" transform="translate(13.013 781.156) rotate(-2.75)" fill="#263238"/>
    <path id="Path_11097" data-name="Path 11097" d="M351.787,420.84v.043a15.94,15.94,0,1,0,31.877.46v-.051Z" transform="translate(-338.025 375.202)" fill="#263238"/>
    <path id="Path_11098" data-name="Path 11098" d="M364,403.857a11.192,11.192,0,1,0,11.352-11.029A11.192,11.192,0,0,0,364,403.857Z" transform="translate(-345.476 392.295)" fill="#fafafa"/>
    <path id="Path_11099" data-name="Path 11099" d="M375.337,392.828A11.192,11.192,0,0,0,364,403.857l22.381.324a11.192,11.192,0,0,0-11.044-11.352Z" transform="translate(-345.478 392.294)" fill="#e0e0e0"/>
    <path id="Path_11100" data-name="Path 11100" d="M375.179,410.766a6.818,6.818,0,1,0,6.916-6.717A6.818,6.818,0,0,0,375.179,410.766Z" transform="translate(-352.298 385.448)" fill="#263238"/>
    <path id="Path_11101" data-name="Path 11101" d="M408.215,403.113c-.09.047-8.389-1.283-8.389-1.283h0a5.068,5.068,0,0,1-3.785,1.98c-3.587.172-7.091.331-10.136.468a5.146,5.146,0,0,0-4.912,5.352h0a5.15,5.15,0,0,0,4.939,4.928l17.671.7a11.791,11.791,0,0,0,8.576-3.922h0Z" transform="translate(-355.844 386.801)" fill="#455a64"/>
    <path id="Path_11102" data-name="Path 11102" d="M339.57,320.95s-.756-15.535,13.843-18.771v-1.992h51.139v4.779s-7.5,9.04-5.068,16.545,3.216,8.272,3.216,8.272h29.105a19.881,19.881,0,0,0,3.676-11.029c.156-6.588-2.581-17.851-4.627-25.051-1.848-6.569-3.017-12.042-3.017-12.042l8.732-2.912s16.159,21.149,16.818,22.318a14.386,14.386,0,0,1,2.378,10.034c-.526,6.074-15.063,24.809-18.876,26.922S429.63,340.27,426.2,340.8c-2.978.46-25.012.156-30.778.066a11.306,11.306,0,0,1-5.692-1.579c-1.723-1.045-3.017-2.776-4.448-5.614l-3.052-5.941Z" transform="translate(-330.567 461.9)" fill="#ca1221"/>
    <path id="Path_11103" data-name="Path 11103" d="M339.114,384.26l-6.44,10.089a1.559,1.559,0,0,0,1.914,2.308,7.5,7.5,0,0,0,2.164-1.466c2.943-2.8,8.187-10.186,8.187-10.186Z" transform="translate(-326.198 397.522)" fill="#455a64"/>
    <path id="Path_11104" data-name="Path 11104" d="M399.076,361.389a.453.453,0,0,1,.039-.148l.129-.425a11.215,11.215,0,0,0,.339-1.665,11.75,11.75,0,0,0-1-6.089,12.755,12.755,0,0,0-2.374-3.567,15.568,15.568,0,0,0-3.9-2.986,19.732,19.732,0,0,0-5.107-1.9,26.9,26.9,0,0,0-5.848-.6,44.052,44.052,0,0,0-5.848.433c-1.887.253-3.7.565-5.4.955a32,32,0,0,0-8.674,3.208,21.466,21.466,0,0,0-4.955,3.785c-.515.53-.885.971-1.131,1.271l-.277.347a.7.7,0,0,1-.1.113,13.1,13.1,0,0,1,1.45-1.785,21.052,21.052,0,0,1,4.943-3.856,31.719,31.719,0,0,1,8.705-3.267c1.707-.39,3.509-.713,5.415-.971a44.354,44.354,0,0,1,5.894-.437,26.826,26.826,0,0,1,5.879.612,19.971,19.971,0,0,1,5.154,1.949,15.674,15.674,0,0,1,3.949,3.033,12.833,12.833,0,0,1,2.382,3.625,11.7,11.7,0,0,1,.943,6.159,9.95,9.95,0,0,1-.39,1.665c-.062.179-.109.316-.148.421A.827.827,0,0,1,399.076,361.389Z" transform="translate(-339.968 422.21)" fill="#263238"/>
    <path id="Path_11105" data-name="Path 11105" d="M442.7,362.911c-.023,0,.082-.246.191-.69a5.045,5.045,0,0,0,.058-1.949,8.012,8.012,0,0,0-.951-2.705,9.235,9.235,0,0,0-.943-1.419,8.551,8.551,0,0,0-1.267-1.314,11.067,11.067,0,0,0-3.041-1.778,14.31,14.31,0,0,0-2.791-.78,18.276,18.276,0,0,0-1.949-.222,5.734,5.734,0,0,1-.717-.055.624.624,0,0,1,.187,0h.534a14.577,14.577,0,0,1,1.949.16,13.483,13.483,0,0,1,2.838.729,11.114,11.114,0,0,1,3.119,1.8,8.932,8.932,0,0,1,1.294,1.345,9.75,9.75,0,0,1,.947,1.454,7.756,7.756,0,0,1,.928,2.776,4.8,4.8,0,0,1-.121,1.973,2.8,2.8,0,0,1-.187.5A.685.685,0,0,1,442.7,362.911Z" transform="translate(-386.536 417.211)" fill="#f5f5f5"/>
    <g id="Group_8639" data-name="Group 8639" transform="translate(46.15 766.485)" opacity="0.4">
      <path id="Path_11106" data-name="Path 11106" d="M434.87,345.036a20.482,20.482,0,0,1,7.7,3.119,13.609,13.609,0,0,1,5.158,6.409,11.241,11.241,0,0,1-.207,8.284l3.614.3a13.269,13.269,0,0,0-3.029-12.214,17.933,17.933,0,0,0-13.235-5.914" transform="translate(-434.87 -345.02)"/>
    </g>
    <rect id="Rectangle_593" data-name="Rectangle 593" width="38.302" height="27.332" rx="8.58" transform="translate(10.039 734.767)" fill="#455a64"/>
    <path id="Path_11107" data-name="Path 11107" d="M380.285,279.141c0,.058-8.612.1-19.231.1s-19.235-.043-19.235-.1,8.608-.1,19.235-.1S380.285,279.087,380.285,279.141Z" transform="translate(-331.944 461.723)" fill="#263238"/>
    <path id="Path_11108" data-name="Path 11108" d="M425.852,338.251c0,.055-11.5.1-25.671.1s-25.671-.047-25.671-.1,11.492-.1,25.671-.1S425.852,338.2,425.852,338.251Z" transform="translate(-351.891 425.656)" fill="#263238"/>
    <path id="Path_11109" data-name="Path 11109" d="M469.014,325.661a4.421,4.421,0,0,0,.928-2.292c.078-1.283-.507-2.889-1.891-2.889h-17.66a5.181,5.181,0,0,0-5.181,5.181Z" transform="translate(-395.029 436.438)" fill="#455a64"/>
    <path id="Path_11110" data-name="Path 11110" d="M560.619,259.092l-3.072-6.405a3.9,3.9,0,0,1,1.559-5.009l9.185-5.477a3.08,3.08,0,0,1,1.587-.441h1.984l.78,12.947-3.056,1.181,1.949,3.15Z" transform="translate(-463.35 484.47)" fill="#ca1221"/>
    <path id="Path_11111" data-name="Path 11111" d="M594.91,243s3.142.721,3.536,5.563-2.772,6.354-2.772,6.354Z" transform="translate(-486.37 483.713)" fill="#ebebeb"/>
    <path id="Path_11112" data-name="Path 11112" d="M556.436,262.574s-6.35,3.01-7.126,3.509a1.479,1.479,0,0,0-.577,2c.717,1.8,3.688.105,3.688.105l5.914-2.955s2.273-1.072,1.431-2.417C558.826,261.31,556.436,262.574,556.436,262.574Z" transform="translate(-458.095 472.073)" fill="#263238"/>
    <path id="Path_11113" data-name="Path 11113" d="M545.123,260.54s5.968,1.021,6.475,1.17,2.495,1.08,2.6,1.688a18.229,18.229,0,0,1,0,2.4s-.359.292-.585-.292a6.145,6.145,0,0,1-.191-1.746l-1.115-.429.608,1.08.1,2.534s-.78-.07-.928-.678a5.912,5.912,0,0,1-.148-1.279l-.815-.69.608.823.207,1.824s-.593.191-.78-.214a6.26,6.26,0,0,1-.2-1.61l-2.292-.8-1.516.846-2.386-1.325Z" transform="translate(-455.771 473.011)" fill="#ffbe9d"/>
    <path id="Path_11114" data-name="Path 11114" d="M561.769,232.374c0,2.417-1.111,4.374-2.479,4.374s-2.479-1.949-2.479-4.374S557.917,228,559.289,228,561.769,229.949,561.769,232.374Z" transform="translate(-463.123 492.866)" fill="#263238"/>
    <path id="Path_11115" data-name="Path 11115" d="M564.21,245.566l1.364,4.725a1.224,1.224,0,0,0,.635-1.4c-.343-1.618-.538-2.768-.912-4.187-.047-.14-1.088.858-1.088.858" transform="translate(-467.638 482.679)" fill="#263238"/>
    <g id="Group_8640" data-name="Group 8640" transform="translate(67.781 741.41)" opacity="0.4">
      <path id="Path_11116" data-name="Path 11116" d="M492.167,324.7c-.133-.39-.273-.78-.39-1.2s-.265-.78-.366-1.17a12.558,12.558,0,0,1-.343-1.782c-2.3,9.356,1.212,15.956,7.239,16.42,8.81.678,19.55,1.17,23.893.031,7.918-2.078,10.822-8.682,11.516-9.769s6.99-12.6,3.119-23.683A162.535,162.535,0,0,0,526.251,280.7l-6.405,2.152s1.169,5.458,3.029,12.023c2.047,7.2,4.783,18.463,4.627,25.051a19.882,19.882,0,0,1-3.676,11.029h-29.1s-.624-.624-2.546-6.237" transform="translate(-490.357 -280.7)"/>
    </g>
    <path id="Path_11117" data-name="Path 11117" d="M336.578,377.3l.207-2.222,53.127,6.12a5.247,5.247,0,0,1,4.553,6.128l-.238,1.345-54.967-7.988A3.119,3.119,0,0,1,336.578,377.3Z" transform="translate(-328.737 403.123)" fill="#ca1221"/>
    <g id="Group_8641" data-name="Group 8641" transform="translate(7.827 778.203)" opacity="0.6">
      <path id="Path_11118" data-name="Path 11118" d="M336.578,377.3l.207-2.222,53.127,6.12a5.247,5.247,0,0,1,4.553,6.128l-.238,1.345-54.967-7.988A3.119,3.119,0,0,1,336.578,377.3Z" transform="translate(-336.564 -375.08)"/>
    </g>
    <g id="Group_8642" data-name="Group 8642" transform="translate(111.14 772.308)" opacity="0.3">
      <path id="Path_11119" data-name="Path 11119" d="M601.58,382.936s11.7-12.865,14.108-22.977a22.741,22.741,0,0,1,3.622.269S612.394,379.03,601.58,382.936Z" transform="translate(-601.58 -359.959)"/>
    </g>
    <path id="Path_11120" data-name="Path 11120" d="M614.571,348.34a1.877,1.877,0,0,1,.062.324c.031.214.094.53.133.939a14.323,14.323,0,0,1-.09,3.509,17.723,17.723,0,0,1-1.559,4.943,56.022,56.022,0,0,1-3.1,5.536,73.925,73.925,0,0,1-6.846,9.255c-.951,1.127-1.739,2.023-2.284,2.639l-.632.706a2.7,2.7,0,0,1-.23.238,1.74,1.74,0,0,1,.2-.261l.6-.733,2.234-2.678a80.378,80.378,0,0,0,6.783-9.27,59.419,59.419,0,0,0,3.119-5.508,18.1,18.1,0,0,0,1.559-4.889,15.6,15.6,0,0,0,.152-3.462c-.027-.409-.078-.725-.094-.943A1.729,1.729,0,0,1,614.571,348.34Z" transform="translate(-489.494 419.439)" fill="#263238"/>
    <path id="Path_11121" data-name="Path 11121" d="M579.826,413.138a15.631,15.631,0,0,1-1.875-1.692,16.042,16.042,0,0,1-1.731-1.836A31.245,31.245,0,0,1,579.826,413.138Z" transform="translate(-474.966 382.054)" fill="#263238"/>
    <path id="Path_11122" data-name="Path 11122" d="M496.43,412.83a5.414,5.414,0,0,1,.862-1.665,5.485,5.485,0,0,1,1.228-1.415c.043.043-.491.682-1.06,1.528S496.485,412.853,496.43,412.83Z" transform="translate(-426.281 381.969)" fill="#263238"/>
    <path id="Path_11123" data-name="Path 11123" d="M430.077,418.14a7.851,7.851,0,0,0,1.594-2.027,6.978,6.978,0,0,0,.78-2.67,6.2,6.2,0,0,0-2.8-5.848,6.966,6.966,0,0,0-2.565-1.072,7.84,7.84,0,0,0-2.577-.035.751.751,0,0,1,.172-.051,4.247,4.247,0,0,1,.515-.1,6.116,6.116,0,0,1,1.918.047,6.974,6.974,0,0,1,2.643,1.056,6.3,6.3,0,0,1,2.881,6.039,6.974,6.974,0,0,1-.842,2.729,6.043,6.043,0,0,1-1.17,1.52,4,4,0,0,1-.39.339A.729.729,0,0,1,430.077,418.14Z" transform="translate(-382.399 384.085)" fill="#263238"/>
    <path id="Path_11124" data-name="Path 11124" d="M388.622,420.368a8.37,8.37,0,0,1-.191-1.871,8.855,8.855,0,0,1,0-1.887,17.5,17.5,0,0,1,.179,3.758Z" transform="translate(-360.354 377.783)" fill="#263238"/>
    <path id="Path_11125" data-name="Path 11125" d="M391.889,420.366a18.051,18.051,0,0,1-.479-3.766,9.171,9.171,0,0,1,.339,1.871A9.077,9.077,0,0,1,391.889,420.366Z" transform="translate(-362.202 377.789)" fill="#263238"/>
    <path id="Path_11126" data-name="Path 11126" d="M403.7,333.611c0,.055-6.46.1-14.424.1s-14.424-.047-14.424-.1,6.46-.1,14.424-.1S403.7,333.553,403.7,333.611Z" transform="translate(-352.098 428.488)" fill="#263238"/>
    <path id="Path_11127" data-name="Path 11127" d="M395.031,282.027c-.058,0-.1-7.407-.1-16.521s.027-16.506.1-16.506.1,7.407.1,16.525S395.086,282.027,395.031,282.027Z" transform="translate(-364.35 480.052)" fill="#263238"/>
    <path id="Path_11128" data-name="Path 11128" d="M384.989,281.969c-.055,0,.222-7.407.62-16.514s.78-16.51.819-16.506-.218,7.407-.616,16.514S385.063,281.973,384.989,281.969Z" transform="translate(-358.281 480.083)" fill="#263238"/>
    <path id="Path_11129" data-name="Path 11129" d="M355.518,415.221a1.264,1.264,0,0,1-.172-.175c-.1-.117-.269-.285-.452-.522a14.965,14.965,0,0,1-1.438-2.113,16.151,16.151,0,0,1,.066-16.17,14.68,14.68,0,0,1,1.454-2.1c.187-.238.355-.39.46-.522s.168-.175.172-.168a.983.983,0,0,1-.14.195c-.094.129-.253.3-.429.546a16.687,16.687,0,0,0-.082,20.283c.172.246.327.421.421.55A1.157,1.157,0,0,1,355.518,415.221Z" transform="translate(-337.741 391.916)" fill="#455a64"/>
    <path id="Path_11130" data-name="Path 11130" d="M496.326,373.11l-.121.226-2.355,4.409-3.29,3.165,6.577,8.756,5.477-.908s-.612-1.251-3.364-1.493l-1.041-5.232,3.863-5.988" transform="translate(-422.7 404.325)" fill="#455a64"/>
    <path id="Path_11131" data-name="Path 11131" d="M490.58,392.094l6.577,8.756,5.477-.908-.752-.721-4.495.491-6.1-8.292Z" transform="translate(-422.712 393.153)" fill="#e0e0e0"/>
    <path id="Path_11132" data-name="Path 11132" d="M509.336,402.9c-.031.062-.39-.066-.78.02s-.706.308-.756.261.195-.413.709-.5S509.379,402.852,509.336,402.9Z" transform="translate(-433.215 386.293)" fill="#263238"/>
    <path id="Path_11133" data-name="Path 11133" d="M508.489,399.23c-.047.047-.347-.234-.78-.25s-.78.246-.815.195.027-.121.168-.234a1.057,1.057,0,0,1,.655-.2,1.026,1.026,0,0,1,.639.246A.433.433,0,0,1,508.489,399.23Z" transform="translate(-432.661 388.688)" fill="#263238"/>
    <path id="Path_11134" data-name="Path 11134" d="M508.012,394.767c-.055.043-.3-.242-.7-.312s-.725.113-.78.055.035-.113.179-.195a.963.963,0,0,1,1.17.211C508.016,394.65,508.039,394.751,508.012,394.767Z" transform="translate(-432.437 391.455)" fill="#263238"/>
    <path id="Path_11135" data-name="Path 11135" d="M511.389,390.541c-.059.031-.265-.253-.643-.417s-.721-.14-.737-.207.39-.226.838,0S511.456,390.521,511.389,390.541Z" transform="translate(-434.567 394.141)" fill="#263238"/>
    <path id="Path_11136" data-name="Path 11136" d="M512.549,385.331c-.027.019-.242-.168-.573-.5l-.561-.581a1.794,1.794,0,0,1-.327-.39.44.44,0,0,1-.023-.339.339.339,0,0,1,.3-.226,1,1,0,0,1,.557.179,2.053,2.053,0,0,1,.39.324,1.9,1.9,0,0,1,.417.745,1.025,1.025,0,0,1,0,.78,5.85,5.85,0,0,0-.164-.713,1.951,1.951,0,0,0-.417-.643,1.787,1.787,0,0,0-.355-.273.908.908,0,0,0-.413-.144.1.1,0,0,0-.094.066.211.211,0,0,0,0,.16,1.722,1.722,0,0,0,.273.343l.534.62A2.338,2.338,0,0,1,512.549,385.331Z" transform="translate(-435.196 398.108)" fill="#263238"/>
    <path id="Path_11137" data-name="Path 11137" d="M515.376,386.819c-.027,0-.055-.289.187-.667a1.388,1.388,0,0,1,1.559-.565.265.265,0,0,1,.117.183.327.327,0,0,1-.039.183.779.779,0,0,1-.168.207,2.609,2.609,0,0,1-.351.285,2.428,2.428,0,0,1-.686.32,1.123,1.123,0,0,1-.686.051c0-.039.253-.062.632-.214a2.729,2.729,0,0,0,.612-.339,2.472,2.472,0,0,0,.312-.273.619.619,0,0,0,.121-.144c.02-.055,0-.039,0-.051a.432.432,0,0,0-.168-.035,1.2,1.2,0,0,0-.207,0,1.362,1.362,0,0,0-.39.094,1.337,1.337,0,0,0-.542.39A4.836,4.836,0,0,0,515.376,386.819Z" transform="translate(-437.801 396.748)" fill="#263238"/>
    <path id="Path_11138" data-name="Path 11138" d="M499.672,390a.659.659,0,1,1-.756-.542.659.659,0,0,1,.756.542Z" transform="translate(-427.461 394.356)" fill="#e0e0e0"/>
    <path id="Path_11139" data-name="Path 11139" d="M556.55,382.287l1.758,11.414,14.217-2.113c-.288-1.345-8.046-2.978-8.046-2.978l-.826-7.36Z" transform="translate(-462.964 399.358)" fill="#455a64"/>
    <path id="Path_11140" data-name="Path 11140" d="M564.853,400.147a.585.585,0,0,0-.3.721.569.569,0,0,0,.713.308.62.62,0,0,0,.316-.78.585.585,0,0,0-.78-.238" transform="translate(-467.825 387.861)" fill="#e0e0e0"/>
    <path id="Path_11141" data-name="Path 11141" d="M560.852,408.864l-.133-1.17L574.4,406.1s.674.183.67.639Z" transform="translate(-465.509 384.196)" fill="#e0e0e0"/>
    <path id="Path_11142" data-name="Path 11142" d="M575.595,399.8c0,.07-.331.152-.643.425s-.444.593-.515.577-.023-.437.355-.76S575.6,399.733,575.595,399.8Z" transform="translate(-473.862 388.064)" fill="#263238"/>
    <path id="Path_11143" data-name="Path 11143" d="M580.235,400.842c.027.066-.257.226-.448.557s-.214.647-.285.655-.171-.39.074-.78S580.224,400.775,580.235,400.842Z" transform="translate(-476.919 387.415)" fill="#263238"/>
    <path id="Path_11144" data-name="Path 11144" d="M584.158,403.123c-.062.027-.211-.308-.09-.713s.425-.608.464-.554-.133.288-.23.624S584.224,403.108,584.158,403.123Z" transform="translate(-479.727 386.791)" fill="#263238"/>
    <path id="Path_11145" data-name="Path 11145" d="M574.193,395.353c0,.066-.351.019-.741.1s-.674.257-.721.2.214-.347.67-.441S574.221,395.291,574.193,395.353Z" transform="translate(-472.835 390.854)" fill="#263238"/>
    <path id="Path_11146" data-name="Path 11146" d="M571.4,390.039a1.353,1.353,0,0,1-.714.1,3.263,3.263,0,0,1-.78-.117,3.333,3.333,0,0,1-.456-.144.779.779,0,0,1-.238-.136.3.3,0,0,1-.086-.363.39.39,0,0,1,.281-.207.885.885,0,0,1,.269,0,2.209,2.209,0,0,1,.468.086,2.583,2.583,0,0,1,.721.331c.39.257.526.5.5.518s-.222-.168-.593-.37a2.777,2.777,0,0,0-.69-.261,2.1,2.1,0,0,0-.429-.066c-.156,0-.285,0-.312.074s0,.035.027.078a.723.723,0,0,0,.175.1,4.2,4.2,0,0,0,.409.16,4.01,4.01,0,0,0,.729.16A5.02,5.02,0,0,1,571.4,390.039Z" transform="translate(-470.619 394.53)" fill="#263238"/>
    <path id="Path_11147" data-name="Path 11147" d="M574.283,388.059a1.219,1.219,0,0,1-.292-.659,2.408,2.408,0,0,1,0-.78,2.655,2.655,0,0,1,.117-.46.593.593,0,0,1,.39-.425.339.339,0,0,1,.328.152,1.018,1.018,0,0,1,.113.253,1.586,1.586,0,0,1,.07.479,1.657,1.657,0,0,1-.195.78c-.222.39-.5.534-.507.511a2.936,2.936,0,0,0,.351-.585,1.627,1.627,0,0,0,.125-.7,1.377,1.377,0,0,0-.074-.409c-.043-.148-.117-.261-.172-.238a.509.509,0,0,0-.214.269,2.357,2.357,0,0,0-.121.413,2.63,2.63,0,0,0-.031.729C574.2,387.786,574.318,388.044,574.283,388.059Z" transform="translate(-473.586 396.623)" fill="#263238"/>
    <path id="Path_11148" data-name="Path 11148" d="M508.78,314.245l-12.19,26.564,8.05,4.834L521.5,313.68" transform="translate(-426.379 440.587)" fill="#263238"/>
    <path id="Path_11149" data-name="Path 11149" d="M504.4,331.6l-8.744,1.4-5.235-31.242-25.866,1.875a6.3,6.3,0,0,1-2.035-.191c-7.263-1.992-6.28-11.255-5.579-12.74l35.791-1.025a7.618,7.618,0,0,1,7.766,6.561Z" transform="translate(-401.892 455.23)" fill="#263238"/>
    <path id="Path_11150" data-name="Path 11150" d="M452.7,237.62l.129-13.208s-1.7-8.576-2.21-11.964c-.78-5.239-1.856-7.73,6.729-11.453l1.879-.725,2.9.039c3.462.261,7.111,3.392,7.2,5.458l3.349,29.772Z" transform="translate(-398.014 509.786)" fill="#ca1221"/>
    <path id="Path_11151" data-name="Path 11151" d="M454.992,210s-2.425,5.216-1.949,9.968l9.033,8.67a10.608,10.608,0,0,0,7.8,3.407l18.689,2.043.519-4.889-17.769-5.037c-.71-.133-1.064-.869-1.606-1.345L454.992,210" transform="translate(-399.771 503.849)" fill="#ca1221"/>
    <path id="Path_11152" data-name="Path 11152" d="M454.39,212.822a1.278,1.278,0,0,1,.359-.242,4.456,4.456,0,0,1,1.208-.339,6.238,6.238,0,0,1,2.019,0,2.094,2.094,0,0,1,.593.2,5.955,5.955,0,0,1,.55.39c.359.281.721.6,1.092.955.748.7,1.458,1.583,2.288,2.479s1.739,1.86,2.729,2.869,2.054,2.066,3.193,3.158c.573.546,1.17,1.1,1.789,1.641.316.257.628.561.928.846a2.246,2.246,0,0,0,1.033.608h0l17.8,5.029.082.023v.086c-.035.347-.078.717-.117,1.1-.136,1.3-.273,2.585-.39,3.793v.1h-.1l-7.922-.881-3.742-.409-3.583-.363c-1.17-.129-2.3-.261-3.392-.421a15.27,15.27,0,0,1-3.142-.729,11.571,11.571,0,0,1-2.643-1.423c-.78-.55-1.513-1.123-2.187-1.688-2.67-2.277-4.631-4.316-5.992-5.7-.674-.7-1.193-1.247-1.54-1.622l-.39-.429-.129-.152s.051.043.144.136.23.238.39.417l1.559,1.6c1.376,1.368,3.353,3.392,6.027,5.649.674.557,1.4,1.127,2.179,1.669a11.658,11.658,0,0,0,2.62,1.4,15.255,15.255,0,0,0,3.119.71c1.1.156,2.226.288,3.388.413l3.583.351,3.742.409,7.914.862-.113.09c.129-1.208.265-2.495.39-3.8.043-.39.082-.748.117-1.1l.074.109-17.777-5.048h0a2.37,2.37,0,0,1-1.138-.659c-.316-.3-.6-.581-.924-.85-.628-.546-1.216-1.1-1.789-1.649-1.138-1.1-2.2-2.16-3.185-3.173s-1.891-1.98-2.729-2.889-1.524-1.789-2.265-2.487a12.98,12.98,0,0,0-1.076-.955,4.616,4.616,0,0,0-.538-.39,1.883,1.883,0,0,0-.565-.2,6.046,6.046,0,0,0-1.992-.031,4.5,4.5,0,0,0-1.2.308A2.731,2.731,0,0,0,454.39,212.822Z" transform="translate(-400.63 502.531)" fill="#263238"/>
    <path id="Path_11153" data-name="Path 11153" d="M466.326,161.111l.9,12.865a4.008,4.008,0,0,0,4,3.723h0a4.008,4.008,0,0,0,4-4.269c-.082-1.224-.152-2.226-.152-2.226a3.729,3.729,0,0,0,3.15-3.6c.023-1.8-.288-5.875-.554-9a4.082,4.082,0,0,0-4.082-3.735H471.71a5.754,5.754,0,0,0-5.384,6.241Z" transform="translate(-407.9 537.487)" fill="#ffbe9d"/>
    <path id="Path_11154" data-name="Path 11154" d="M482.468,194.84a7.255,7.255,0,0,1-4.058-1.15,3.824,3.824,0,0,0,4.066,1.949Z" transform="translate(-415.286 513.8)" fill="#eb996e"/>
    <path id="Path_11155" data-name="Path 11155" d="M492.289,174.082a.444.444,0,0,1-.429.448.421.421,0,0,1-.46-.39.448.448,0,0,1,.429-.452A.429.429,0,0,1,492.289,174.082Z" transform="translate(-423.212 526.006)" fill="#263238"/>
    <path id="Path_11156" data-name="Path 11156" d="M491.328,171.718c-.058.058-.39-.191-.873-.191s-.826.242-.881.183.031-.133.187-.242a1.2,1.2,0,0,1,.7-.218,1.17,1.17,0,0,1,.694.226C491.289,171.585,491.352,171.69,491.328,171.718Z" transform="translate(-422.088 527.492)" fill="#263238"/>
    <path id="Path_11157" data-name="Path 11157" d="M480.769,174.082a.441.441,0,0,1-.429.448.421.421,0,0,1-.46-.39.448.448,0,0,1,.429-.452A.429.429,0,0,1,480.769,174.082Z" transform="translate(-416.183 526.006)" fill="#263238"/>
    <path id="Path_11158" data-name="Path 11158" d="M479.236,171.948c-.055.058-.39-.191-.873-.191s-.826.242-.877.183.027-.133.183-.242a1.2,1.2,0,0,1,.7-.218,1.169,1.169,0,0,1,.694.222C479.236,171.815,479.279,171.92,479.236,171.948Z" transform="translate(-414.713 527.352)" fill="#263238"/>
    <path id="Path_11159" data-name="Path 11159" d="M486.142,175.544a3.189,3.189,0,0,1,.78-.14c.121,0,.238-.039.257-.121a.585.585,0,0,0-.082-.363l-.366-.928a15.7,15.7,0,0,1-.811-2.433,16.551,16.551,0,0,1,1.006,2.359l.343.936a.706.706,0,0,1,.066.479.308.308,0,0,1-.2.179.862.862,0,0,1-.207.027A3.119,3.119,0,0,1,486.142,175.544Z" transform="translate(-419.869 527.303)" fill="#263238"/>
    <path id="Path_11160" data-name="Path 11160" d="M482.771,182.63c.078,0,.078.515.522.881s1,.312,1,.39-.125.1-.359.105a1.294,1.294,0,0,1-.834-.292,1.123,1.123,0,0,1-.39-.741C482.678,182.774,482.736,182.626,482.771,182.63Z" transform="translate(-417.905 520.549)" fill="#263238"/>
    <path id="Path_11161" data-name="Path 11161" d="M478.911,167.309c-.047.129-.522.07-1.084.136s-1.017.222-1.092.105.047-.179.23-.3a1.887,1.887,0,0,1,1.657-.183C478.829,167.145,478.934,167.247,478.911,167.309Z" transform="translate(-414.251 530.115)" fill="#263238"/>
    <path id="Path_11162" data-name="Path 11162" d="M491.065,168.135c-.082.109-.413,0-.807,0s-.733.07-.811-.043.019-.164.168-.265a1.1,1.1,0,0,1,.659-.179,1.127,1.127,0,0,1,.643.218C491.057,167.971,491.1,168.081,491.065,168.135Z" transform="translate(-422.004 529.691)" fill="#263238"/>
    <path id="Path_11163" data-name="Path 11163" d="M465.807,176.725c-.055-.023-2.14-.635-2.07,1.493a1.6,1.6,0,0,0,2.191,1.559C465.932,179.715,465.807,176.725,465.807,176.725Z" transform="translate(-406.333 524.212)" fill="#ffbe9d"/>
    <path id="Path_11164" data-name="Path 11164" d="M466.072,180.064a.636.636,0,0,1-.1.058.39.39,0,0,1-.277,0,.916.916,0,0,1-.448-.807,1.232,1.232,0,0,1,.086-.534.433.433,0,0,1,.269-.3.191.191,0,0,1,.222.1c.031.058.02.1.031.105s.043-.039.023-.125a.23.23,0,0,0-.09-.133.277.277,0,0,0-.207-.047.515.515,0,0,0-.39.343,1.236,1.236,0,0,0-.109.6.955.955,0,0,0,.569.9.39.39,0,0,0,.335-.066C466.072,180.115,466.08,180.068,466.072,180.064Z" transform="translate(-407.155 523.142)" fill="#eb996e"/>
    <path id="Path_11165" data-name="Path 11165" d="M465.394,162.7a1.123,1.123,0,0,1,1.025.526c.136.3.168.647.3.951a.78.78,0,0,0,.78.5.655.655,0,0,0,.444-.487,1.766,1.766,0,0,0,0-.686c-.125-.994-.331-1.976-.37-2.978a5.068,5.068,0,0,1,.628-2.893,2.784,2.784,0,0,1,2.487-1.4c.663.055,1.267.39,1.926.491a2.6,2.6,0,0,0,2.16-.721,4.329,4.329,0,0,1,.39-.292,1.2,1.2,0,0,0-.222-.655,6.292,6.292,0,0,0-9.45,2.152,8.95,8.95,0,0,0-.113,5.489" transform="translate(-407.108 538.164)" fill="#263238"/>
    <path id="Path_11166" data-name="Path 11166" d="M476.425,156.535s-8.163-2.628-11.7,4.436a13.168,13.168,0,0,1-.53-2.729,6.074,6.074,0,0,1,4.257-5.586C468.457,152.672,474.3,150.442,476.425,156.535Z" transform="translate(-406.616 539.073)" fill="#ca1221"/>
    <path id="Path_11167" data-name="Path 11167" d="M477.292,161.386a1.778,1.778,0,0,0,2.83.257,1.045,1.045,0,0,0,1.977-.1,2.421,2.421,0,0,0,.78.581.811.811,0,0,0,.908-.191.78.78,0,0,0-.058-.936,1.9,1.9,0,0,0-.826-.557,5.984,5.984,0,0,0-3.08-.468,4.159,4.159,0,0,0-2.7,1.47" transform="translate(-414.499 534.398)" fill="#263238"/>
    <g id="Group_8643" data-name="Group 8643" transform="translate(57.584 691.345)" opacity="0.4">
      <path id="Path_11168" data-name="Path 11168" d="M476.425,156.538a3.793,3.793,0,0,0-2.6-1.17,10.255,10.255,0,0,0-9.1,5.614,13.168,13.168,0,0,1-.53-2.729,6.074,6.074,0,0,1,4.257-5.586C468.457,152.674,474.3,150.444,476.425,156.538Z" transform="translate(-464.2 -152.275)"/>
    </g>
    <path id="Path_11169" data-name="Path 11169" d="M466.43,160.436a15.371,15.371,0,0,1,4.756-4.553,29.952,29.952,0,0,1,7.118-2.9,4.646,4.646,0,0,1,1.969-.207,1.774,1.774,0,0,1,1.458,1.193c.2.807-1.228,2.051-1.9,2.538a21.528,21.528,0,0,1-2.043,1.208s.019-1.5-2.374-1.8C472.157,155.493,466.43,160.436,466.43,160.436Z" transform="translate(-407.977 538.782)" fill="#ca1221"/>
    <g id="Group_8644" data-name="Group 8644" transform="translate(55.58 725.746)" opacity="0.3">
      <path id="Path_11170" data-name="Path 11170" d="M459.06,240.52a38.227,38.227,0,0,0,2.912,6.366,11.227,11.227,0,0,0,4.877,4.288,10.53,10.53,0,0,0,8.1.148c.207-.09.612-.2.573-.425,0,0-.838-.1-1.1-.14-5.119-.85-5.676-1.474-8.128-3.423-1.528-1.2-4.916-4.857-7.232-6.814" transform="translate(-459.06 -240.52)"/>
    </g>
    <path id="Path_11171" data-name="Path 11171" d="M482.753,278.46a2.142,2.142,0,0,1-.214.476,5.947,5.947,0,0,1-.826,1.169,8.966,8.966,0,0,1-3.957,2.413,18.138,18.138,0,0,1-4.616.69c-.6.023-1.08.027-1.411.027a3.011,3.011,0,0,1-.518-.023,2.285,2.285,0,0,1,.515-.058l1.407-.09a20.2,20.2,0,0,0,4.565-.741,9.278,9.278,0,0,0,3.922-2.339A9.991,9.991,0,0,0,482.753,278.46Z" transform="translate(-410.893 462.077)" fill="#263238"/>
    <path id="Path_11172" data-name="Path 11172" d="M524.612,352.7a.389.389,0,0,1-.031-.121,2.246,2.246,0,0,0-.07-.359c-.059-.327-.144-.78-.25-1.38-.214-1.216-.515-2.951-.889-5.091-.729-4.312-1.735-10.249-2.846-16.806-.5-2.971-.967-5.809-1.4-8.4l.1.082-11.192.807-3.212.218-.858.051h-.222l.222-.027.854-.078,3.208-.273,11.184-.893h.086v.086c.437,2.592.916,5.43,1.415,8.4,1.088,6.561,2.07,12.5,2.787,16.818.343,2.144.624,3.9.823,5.1l.21,1.392c.023.148.039.269.051.359A.5.5,0,0,1,524.612,352.7Z" transform="translate(-430.699 436.469)" fill="#455a64"/>
    <path id="Path_11173" data-name="Path 11173" d="M545.895,313.54c.035.047-.647.632-1.419,1.419s-1.349,1.478-1.4,1.439a9.286,9.286,0,0,1,2.815-2.858Z" transform="translate(-454.746 440.672)" fill="#455a64"/>
    <path id="Path_11174" data-name="Path 11174" d="M476.05,203.042a.655.655,0,0,1,.047.129,1.826,1.826,0,0,1,.074.39,3.2,3.2,0,0,1-.187,1.419,3.634,3.634,0,0,1-1.286,1.684,3.9,3.9,0,0,1-2.5.671,4.515,4.515,0,0,1-2.429-.912,5.158,5.158,0,0,1-1.38-1.61,5.567,5.567,0,0,1-.53-1.325,3.764,3.764,0,0,1-.078-.39.383.383,0,0,1,0-.136,8.843,8.843,0,0,0,.737,1.77,5.345,5.345,0,0,0,1.368,1.532,4.417,4.417,0,0,0,2.339.858,3.785,3.785,0,0,0,2.382-.62,3.594,3.594,0,0,0,1.255-1.583,3.31,3.31,0,0,0,.246-1.361C476.082,203.229,476.05,203.05,476.05,203.042Z" transform="translate(-408.798 508.144)" fill="#263238"/>
    <path id="Path_11175" data-name="Path 11175" d="M501.215,230.524a1.637,1.637,0,0,1-.086-.39c-.043-.308-.094-.682-.156-1.115-.129-.994-.3-2.273-.479-3.688s-.316-2.729-.39-3.7c-.043-.472-.07-.858-.086-1.123a1.531,1.531,0,0,1,0-.413,1.924,1.924,0,0,1,.082.39c.043.308.094.678.152,1.115.125.994.285,2.273.46,3.688s.327,2.729.421,3.692c.043.476.074.858.094,1.127a1.773,1.773,0,0,1-.012.413Z" transform="translate(-428.462 497.686)" fill="#263238"/>
  </g>
</svg>
