<svg xmlns="http://www.w3.org/2000/svg" width="141.333" height="83.573" viewBox="0 0 141.333 83.573">
  <g id="Group_8651" data-name="Group 8651" transform="translate(-245.625 -726.616)">
    <g id="Group_8637" data-name="Group 8637" transform="translate(245.625 757.664)" opacity="0.21">
      <g id="Group_8628" data-name="Group 8628" transform="translate(0.972 0)">
        <rect id="Rectangle_575" data-name="Rectangle 575" width="30.087" height="1.943" fill="#ca1221"/>
      </g>
      <g id="Group_8629" data-name="Group 8629" transform="translate(43.422 0)">
        <rect id="Rectangle_576" data-name="Rectangle 576" width="31.539" height="1.943" fill="#ca1221"/>
      </g>
      <g id="Group_8630" data-name="Group 8630" transform="translate(92.646 0)">
        <rect id="Rectangle_577" data-name="Rectangle 577" width="48.687" height="1.943" fill="#ca1221"/>
      </g>
      <g id="Group_8631" data-name="Group 8631" transform="translate(0 14.572)">
        <rect id="Rectangle_578" data-name="Rectangle 578" width="49.674" height="1.943" fill="#ca1221"/>
      </g>
      <g id="Group_8632" data-name="Group 8632" transform="translate(67.517 14.572)">
        <rect id="Rectangle_579" data-name="Rectangle 579" width="72.844" height="1.943" fill="#ca1221"/>
      </g>
      <g id="Group_8633" data-name="Group 8633" transform="translate(0.972 32.057)">
        <rect id="Rectangle_580" data-name="Rectangle 580" width="35.872" height="1.943" fill="#ca1221"/>
      </g>
      <g id="Group_8634" data-name="Group 8634" transform="translate(49.094 32.057)">
        <rect id="Rectangle_581" data-name="Rectangle 581" width="22.999" height="1.943" fill="#ca1221"/>
      </g>
      <g id="Group_8635" data-name="Group 8635" transform="translate(87.764 32.057)">
        <rect id="Rectangle_582" data-name="Rectangle 582" width="53.57" height="1.943" fill="#ca1221"/>
      </g>
    </g>
    <rect id="Rectangle_583" data-name="Rectangle 583" width="40.602" height="31.316" transform="translate(322.572 726.709)" fill="#f5f5f5"/>
    <path id="Path_11016" data-name="Path 11016" d="M113.021,279.067c.055,0,.1-6.978.1-15.594s-.047-15.593-.1-15.593-.1,6.978-.1,15.593S112.951,279.067,113.021,279.067Z" transform="translate(219.722 478.736)" fill="#ebebeb"/>
    <rect id="Rectangle_584" data-name="Rectangle 584" width="3.111" height="3.52" transform="translate(326.014 750.895)" fill="#fafafa"/>
    <rect id="Rectangle_587" data-name="Rectangle 587" width="67.029" height="51.696" transform="translate(305.901 758.465)" fill="#ebebeb"/>
    <rect id="Rectangle_586" data-name="Rectangle 586" width="4.612" height="6.682" transform="translate(346.173 751.25)" fill="#ebebeb"/>
    <path id="Path_11017" data-name="Path 11017" d="M187.643,380.719c-.074,0-.133-11.524-.133-25.729s.058-25.729.133-25.729.133,11.52.133,25.729S187.7,380.719,187.643,380.719Z" transform="translate(174.209 429.081)" fill="#e0e0e0"/>
    <rect id="Rectangle_588" data-name="Rectangle 588" width="5.138" height="5.809" transform="translate(366.824 798.396)" fill="#fafafa"/>
    <rect id="Rectangle_589" data-name="Rectangle 589" width="7.614" height="11.032" transform="translate(332.064 758.598)" fill="#e0e0e0"/>
    <rect id="Rectangle_590" data-name="Rectangle 590" width="7.614" height="11.032" transform="translate(332.064 798.978)" fill="#e0e0e0"/>
    <path id="Path_11176" data-name="Path 11176" d="M131.767,401.115c5.255-3.645,6.467-10.436,6.28-16.545a6.726,6.726,0,0,0-.39-2.99,2.073,2.073,0,0,0-2.526-1.084c-.756.355-1.092,1.232-1.516,1.949a5.961,5.961,0,0,1-2.4,2.277,2.29,2.29,0,0,1-2.1.179c-.877-.487-.975-1.7-.967-2.729q.031-2.834.055-5.668a9.408,9.408,0,0,0-.285-2.986,3.154,3.154,0,0,0-1.973-2.136,1.9,1.9,0,0,0-2.362,1.271,9.083,9.083,0,0,0-.035,1.263,1.068,1.068,0,0,1-.628,1,1.241,1.241,0,0,1-1.111-.468,13.3,13.3,0,0,1-2.409-3.664,18.277,18.277,0,0,0-2.245-3.777,5.488,5.488,0,0,0-3.707-2.1,3.29,3.29,0,0,0-3.376,2.226c-.374,1.423.456,2.885,1.361,4.043a22.61,22.61,0,0,0,4.678,4.51,1.859,1.859,0,0,1,.78.85c.214.678-.425,1.345-1.1,1.559a11.518,11.518,0,0,1-2.366.257,2.271,2.271,0,0,0-1.949,1.17c-.417,1.037.444,2.125,1.294,2.838a19.309,19.309,0,0,0,5.731,3.333,6.572,6.572,0,0,1,2.129,1.045,1.651,1.651,0,0,1-1.489,2.932,14.525,14.525,0,0,1-2.222-.858c-1.392-.53-3.193-.441-4.089.76a3.216,3.216,0,0,0-.351,2.838,7.407,7.407,0,0,0,1.528,2.511,19.492,19.492,0,0,0,8.307,5.879,13.383,13.383,0,0,0,9.438.285" transform="translate(221.513 407.331)" fill="#ca1221"/>
    <path id="Path_11177" data-name="Path 11177" d="M133.876,404.173a20.275,20.275,0,0,0-1.216-5.555,90.438,90.438,0,0,0-3.571-9.8q-.546-1.275-1.068-2.518c-.355-.826-.7-1.645-1.1-2.425a45.109,45.109,0,0,0-2.518-4.343c-.862-1.349-1.731-2.592-2.553-3.754s-1.61-2.222-2.37-3.162a36.209,36.209,0,0,0-3.9-4.163c-.5-.456-.9-.78-1.17-1.021l-.312-.253c-.07-.058-.109-.086-.113-.082a1.343,1.343,0,0,0,.1.1l.3.269c.265.234.655.581,1.146,1.045a38.194,38.194,0,0,1,3.855,4.195c.752.939,1.532,2.008,2.339,3.169s1.676,2.409,2.538,3.754a45.77,45.77,0,0,1,2.483,4.343c.39.78.737,1.591,1.088,2.417s.706,1.669,1.068,2.518a93.114,93.114,0,0,1,3.579,9.773,20.987,20.987,0,0,1,1.251,5.516" transform="translate(219.069 405.993)" fill="#263238"/>
    <path id="Path_11178" data-name="Path 11178" d="M146.993,392.663a2.058,2.058,0,0,0,.1-.433c.055-.281.121-.686.195-1.193.144-1.01.3-2.409.468-3.953s.339-2.939.5-3.945c.082-.5.148-.908.2-1.189a1.828,1.828,0,0,0,.055-.441,2.48,2.48,0,0,0-.129.425c-.07.277-.16.682-.257,1.17-.195,1-.39,2.4-.557,3.945s-.3,2.9-.413,3.961c-.051.476-.1.877-.133,1.2A1.738,1.738,0,0,0,146.993,392.663Z" transform="translate(198.934 397.2)" fill="#263238"/>
    <path id="Path_11179" data-name="Path 11179" d="M113.58,403.733a2.682,2.682,0,0,0,.522.066c.331.031.819.07,1.415.144,1.193.133,2.834.39,4.635.721s3.415.733,4.577,1.045c.581.152,1.049.288,1.372.39a3.155,3.155,0,0,0,.511.125,3.058,3.058,0,0,0-.487-.2c-.32-.113-.78-.269-1.361-.437-1.17-.347-2.772-.752-4.577-1.1a45.3,45.3,0,0,0-4.678-.667c-.6-.055-1.088-.078-1.423-.086A2.922,2.922,0,0,0,113.58,403.733Z" transform="translate(219.319 383.647)" fill="#263238"/>
    <path id="Path_11180" data-name="Path 11180" d="M161.44,421.311a.706.706,0,0,0,.094-.16c.058-.129.133-.285.222-.472.195-.409.456-1.01.78-1.754.632-1.493,1.446-3.579,2.308-5.9s1.657-4.409,2.257-5.91l.721-1.778c.074-.195.14-.355.191-.483s.062-.172.055-.175a.752.752,0,0,0-.09.16l-.222.468c-.195.413-.46,1.014-.78,1.758-.635,1.489-1.446,3.579-2.308,5.894s-1.657,4.409-2.261,5.914c-.292.729-.538,1.329-.717,1.774-.078.195-.14.355-.191.487a.892.892,0,0,0-.058.175Z" transform="translate(190.117 383.062)" fill="#263238"/>
    <path id="Path_11181" data-name="Path 11181" d="M117.05,432.86a.854.854,0,0,0,.172.07l.5.172,1.856.608c1.559.511,3.715,1.247,6.093,2.058s4.542,1.532,6.117,2.012c.78.242,1.427.429,1.871.55l.515.14a1.033,1.033,0,0,0,.179.035,1.252,1.252,0,0,0-.172-.074l-.5-.168-1.84-.608c-1.559-.515-3.715-1.248-6.1-2.062s-4.538-1.532-6.113-2.012c-.78-.242-1.427-.429-1.871-.55l-.515-.136A.531.531,0,0,0,117.05,432.86Z" transform="translate(217.202 365.868)" fill="#263238"/>
    <rect id="Rectangle_585" data-name="Rectangle 585" width="4.612" height="6.682" transform="translate(346.173 726.709)" fill="#ebebeb"/>
  </g>
</svg>
