<svg xmlns="http://www.w3.org/2000/svg" width="41.607" height="54.292" viewBox="0 0 41.607 54.292">
  <g id="Group_8509" data-name="Group 8509" transform="translate(-166.697 -329.964)">
    <path id="Path_10468" data-name="Path 10468" d="M20.8,0a20.8,20.8,0,0,1,20.8,20.8c0,7.514-2.978,12.476-7.925,17.844C31.366,40.82,24.419,51.45,20.8,54.292,18.525,51.556,10.841,41.346,8,38.647,4.316,34.4,0,28.283,0,20.8A20.8,20.8,0,0,1,20.8,0Z" transform="translate(166.697 329.964)"/>
    <circle id="Ellipse_45" data-name="Ellipse 45" cx="15.277" cy="15.277" r="15.277" transform="translate(172.223 335.815)" fill="#fff"/>
    <path id="user" d="M11.16,10.2C9.291,9.515,8.694,8.94,8.694,7.71c0-.738.613-1.217.821-1.85a15.028,15.028,0,0,0,.43-1.927A12.03,12.03,0,0,0,10.14,2.6C10.206,1.871,9.721,0,7.127,0S4.046,1.871,4.114,2.6a12.123,12.123,0,0,0,.195,1.337A14.956,14.956,0,0,0,4.738,5.86c.209.633.822,1.111.822,1.85,0,1.231-.6,1.805-2.466,2.486S0,11.551,0,12.026v2.227H14.253V12.026C14.253,11.552,13.035,10.879,11.16,10.2Z" transform="translate(180.374 343.966)" fill="#ca1221"/>
  </g>
</svg>
