<svg xmlns="http://www.w3.org/2000/svg" width="10.327" height="10.8" viewBox="255.127 233.75 10.327 10.8"><g data-name="ic_tab_bar_chat"><path d="m260.632 238.311 4.822-1.981v6.01a.341.341 0 0 1-.212.316l-4.61 1.894v-6.239Zm-5.294 4.345a.341.341 0 0 1-.211-.316v-6.01l2.215.91v1.777a.341.341 0 0 0 .683 0v-1.496l1.924.79v6.239l-4.61-1.894Zm3.18-5.671 4.755-2.038 1.874.77-4.857 1.996-1.772-.728Zm-3.085-1.267 4.728-1.942a.342.342 0 0 1 .26 0l1.967.808-4.753 2.038-2.202-.904Z" fill="#ca1221" fill-rule="evenodd" data-name="Combined Shape"/></g></svg>