<svg id="id-card-o" xmlns="http://www.w3.org/2000/svg" width="24.995" height="18.746" viewBox="0 0 24.995 18.746">
  <path id="Path_10783" data-name="Path 10783" d="M10.935,13.23a1.744,1.744,0,0,1-.384,1.141,1.156,1.156,0,0,1-.921.47H4.43a1.156,1.156,0,0,1-.921-.47,1.744,1.744,0,0,1-.384-1.141A7.714,7.714,0,0,1,3.216,12a5.349,5.349,0,0,1,.3-1.1,1.839,1.839,0,0,1,.622-.836,1.623,1.623,0,0,1,.989-.305,2.591,2.591,0,0,0,1.9.781,2.591,2.591,0,0,0,1.9-.781,1.623,1.623,0,0,1,.989.305,1.839,1.839,0,0,1,.622.836,5.349,5.349,0,0,1,.3,1.1A7.714,7.714,0,0,1,10.935,13.23ZM9.373,7.811A2.334,2.334,0,0,1,7.03,10.154,2.334,2.334,0,0,1,4.687,7.811,2.334,2.334,0,0,1,7.03,5.468,2.334,2.334,0,0,1,9.373,7.811Zm12.5,5.077v.781a.376.376,0,0,1-.391.391H12.888a.376.376,0,0,1-.391-.391v-.781a.376.376,0,0,1,.391-.391H21.48a.376.376,0,0,1,.391.391ZM17.184,9.764v.781a.376.376,0,0,1-.391.391H12.888a.376.376,0,0,1-.391-.391V9.764a.376.376,0,0,1,.391-.391h3.905a.376.376,0,0,1,.391.391Zm4.687,0v.781a.376.376,0,0,1-.391.391H19.137a.376.376,0,0,1-.391-.391V9.764a.376.376,0,0,1,.391-.391H21.48a.376.376,0,0,1,.391.391Zm0-3.124V7.42a.376.376,0,0,1-.391.391H12.888A.376.376,0,0,1,12.5,7.42V6.639a.376.376,0,0,1,.391-.391H21.48a.376.376,0,0,1,.391.391Zm1.562,10.154V3.124H1.562V16.793a.4.4,0,0,0,.391.391H23.042a.4.4,0,0,0,.391-.391ZM24.995,1.953V16.793a1.958,1.958,0,0,1-1.953,1.953H1.953a1.88,1.88,0,0,1-1.379-.574A1.88,1.88,0,0,1,0,16.793V1.953A1.88,1.88,0,0,1,.574.574,1.88,1.88,0,0,1,1.953,0H23.042a1.88,1.88,0,0,1,1.379.574A1.88,1.88,0,0,1,24.995,1.953Z" fill="#aaa"/>
</svg>
