<svg xmlns="http://www.w3.org/2000/svg" width="15.849" height="20.171" viewBox="0 0 15.849 20.171">
    <g id="location-person" transform="translate(-7.5 -3)">
        <path id="Path_10775" data-name="Path 10775" d="M23.763,25.382H22.322V23.941H19.441v1.441H18V23.941A1.442,1.442,0,0,1,19.441,22.5h2.882a1.442,1.442,0,0,1,1.441,1.441Z" transform="translate(-5.457 -10.135)" fill="#aaa"/>
        <path id="Path_10776" data-name="Path 10776" d="M21.661,16.322a2.161,2.161,0,1,1,2.161-2.161,2.161,2.161,0,0,1-2.161,2.161Zm0-2.882a.72.72,0,1,0,.72.72.72.72,0,0,0-.72-.72Z" transform="translate(-6.237 -4.678)" fill="#aaa"/>
        <path id="Path_10777" data-name="Path 10777" d="M15.424,23.171,9.347,16q-.127-.161-.251-.325a7.845,7.845,0,0,1-1.6-4.755,7.924,7.924,0,0,1,15.849,0,7.841,7.841,0,0,1-1.6,4.753v0s-.216.284-.249.322Zm-5.178-8.36s.169.222.207.269l4.972,5.863L20.4,15.073c.032-.04.2-.263.2-.264a6.412,6.412,0,0,0,1.3-3.884,6.484,6.484,0,0,0-12.967,0,6.415,6.415,0,0,0,1.306,3.887Z" transform="translate(0)" fill="#aaa"/>
    </g>
</svg>
