<svg id="saudi-arabia" xmlns="http://www.w3.org/2000/svg" width="71.155" height="71.155" viewBox="0 0 71.155 71.155">
    <path id="Path" d="M55.59,0H15.565A15.565,15.565,0,0,0,0,15.565V55.59A15.565,15.565,0,0,0,15.565,71.155H55.59A15.565,15.565,0,0,0,71.155,55.59V15.565A15.565,15.565,0,0,0,55.59,0Z" fill="#73af00"/>
    <g id="Group" transform="translate(9.898 19.449)">
        <path id="Path-2" data-name="Path" d="M.621,6.007c.144.925.7,1.216,1.19,1.178A1.2,1.2,0,0,0,2.887,6.062V2.887a.289.289,0,1,1,.577,0V6.076A1.154,1.154,0,0,0,5.048,7.148l.289-.115C5.363,9.7,5.2,12.04,5.2,12.083a.577.577,0,0,0,.535.617l.042,0a.577.577,0,0,0,.575-.536c.013-.188.191-2.753.138-5.594l.174-.07a.579.579,0,0,1,.472.02,1.649,1.649,0,0,0,1.9-.309l.1-.1A1.724,1.724,0,0,0,9.56,4.336L9.068,2.862A.577.577,0,0,0,9.5,1.793L8.342,1.216a.577.577,0,0,0-.806.7L8.464,4.7a.575.575,0,0,1-.139.591l-.1.1a.5.5,0,0,1-.571.092,1.726,1.726,0,0,0-1.2-.12A19.908,19.908,0,0,0,5.744.395a.577.577,0,0,0-1.1.365A19.836,19.836,0,0,1,5.31,5.8l-.691.276V2.887a1.443,1.443,0,1,0-2.887,0V5.682L1.143,2.772A.577.577,0,1,0,.012,3Z" transform="translate(0.161 1.191)" fill="#f5f5f5"/>
        <path id="Path-3" data-name="Path" d="M.577,1.732a.577.577,0,0,0,.577-.577V.577A.577.577,0,1,0,0,.577v.577A.577.577,0,0,0,.577,1.732Z" transform="translate(1.317 0.614)" fill="#f5f5f5"/>
        <path id="Path-4" data-name="Path" d="M.577,1.155h.577A.577.577,0,0,0,1.155,0H.577a.577.577,0,0,0,0,1.155Z" transform="translate(7.09 0.613)" fill="#f5f5f5"/>
        <path id="Path-5" data-name="Path" d="M3.167.082.28,1.814a.577.577,0,0,0,.594.99L3.761,1.073a.577.577,0,0,0-.594-.99Z" transform="translate(0.739 9.273)" fill="#f5f5f5"/>
        <path id="Shape" d="M1.923,16.828a3.626,3.626,0,0,1-1.9-3.62.577.577,0,1,1,1.145.143,2.479,2.479,0,0,0,1.271,2.442,2.885,2.885,0,0,0,2.892-.212A6.542,6.542,0,0,0,8.1,10.4a5.981,5.981,0,0,1-1.322,2.959A3.52,3.52,0,0,1,4.124,14.7l-.116,0a2.647,2.647,0,0,1-1.932-.858,4.424,4.424,0,0,1-.907-2.9.565.565,0,0,1,.608-.545A.577.577,0,0,1,2.321,11a3.292,3.292,0,0,0,.611,2.065,1.513,1.513,0,0,0,1.121.478A2.423,2.423,0,0,0,5.9,12.6a4.829,4.829,0,0,0,.939-1.78,1.925,1.925,0,0,1-1.722-.079,1.366,1.366,0,0,1-.441-1.721A2.108,2.108,0,0,1,6.707,7.737a1.49,1.49,0,0,1,1.264.993c.029-.026.059-.057.089-.085C7.933,5.2,7.526.683,7.521.63A.577.577,0,1,1,8.671.525c0,.05.357,3.952.51,7.3L9.5,7.605a.578.578,0,0,1,.886.611,1.408,1.408,0,0,0,0,.756c.572-.062.591-.8.591-.887a.578.578,0,0,1,1.148-.095,1.388,1.388,0,0,0,.179.486c.419-.254.406-.939.406-.946a.58.58,0,0,1,.553-.6.591.591,0,0,1,.6.546A2.195,2.195,0,0,1,12.835,9.51a1.1,1.1,0,0,1-1.017.032A.91.91,0,0,1,11.7,9.47a1.592,1.592,0,0,1-1.2.632,1.135,1.135,0,0,1-.984-.383,1.312,1.312,0,0,1-.266-.542l-.014.009c.012.427.019.834.019,1.206a7.675,7.675,0,0,1-3.316,6.169,4.269,4.269,0,0,1-2.264.683A3.924,3.924,0,0,1,1.923,16.828Z" transform="translate(2.458 1.19)" fill="#f5f5f5"/>
        <path id="Path-6" data-name="Path" d="M2.185,2.389a.579.579,0,0,0-.789.2,1.206,1.206,0,0,1-.1.137c-.006-.015-.012-.03-.019-.047A3.883,3.883,0,0,1,1.3.724.577.577,0,0,0,.182.427,4.971,4.971,0,0,0,.2,3.088c.265.706.672.884.967.908.026,0,.052,0,.078,0a1.516,1.516,0,0,0,1.15-.825A.576.576,0,0,0,2.185,2.389Z" transform="translate(0 13.893)" fill="#f5f5f5"/>
        <path id="Shape-2" data-name="Shape" d="M.123,4.975a.578.578,0,0,1,.1-.81l2.06-1.617a1.442,1.442,0,1,1,1.659.128.558.558,0,0,1-.095.112L.934,5.073A.571.571,0,0,1,.578,5.2.577.577,0,0,1,.123,4.975Z" transform="translate(12.262 0.613)" fill="#f5f5f5"/>
        <path id="Path-7" data-name="Path" d="M.854.03a.576.576,0,0,0-.73.365A1.765,1.765,0,0,0,.348,2.1a1.165,1.165,0,0,0,.863.329,2.536,2.536,0,0,0,.8-.147.577.577,0,1,0-.365-1.095,2.013,2.013,0,0,1-.471.1A1.1,1.1,0,0,1,1.219.758.577.577,0,0,0,.854.03Z" transform="translate(13.924 5.232)" fill="#f5f5f5"/>
        <path id="Path-8" data-name="Path" d="M.416,2.286a.578.578,0,0,0,.716-.392L1.469.739A.577.577,0,1,0,.36.415L.023,1.57A.578.578,0,0,0,.416,2.286Z" transform="translate(20.97 0.589)" fill="#f5f5f5"/>
        <path id="Path-9" data-name="Path" d="M.672,2.808a.577.577,0,0,0,.583-1c-.116-.068-.1-.259-.1-.3a.453.453,0,0,1,.265-.386A.577.577,0,0,0,1.08.026,1.585,1.585,0,0,0,.011,1.383,1.424,1.424,0,0,0,.672,2.808Z" transform="translate(17.349 0)" fill="#f5f5f5"/>
        <path id="Path-10" data-name="Path" d="M.577,0A.577.577,0,0,0,.469,1.144a1.083,1.083,0,0,1,.108.587.577.577,0,1,0,1.155,0C1.732.02.624,0,.577,0Z" transform="translate(12.863 12.16)" fill="#f5f5f5"/>
        <path id="Path-11" data-name="Path" d="M1.135,1.651a1.345,1.345,0,0,0,.217.018A1.974,1.974,0,0,0,2.718.986.577.577,0,0,0,1.9.169c-.345.346-.531.353-.579.342-.11-.016-.21-.16-.232-.2A.577.577,0,0,0,.061.836,1.561,1.561,0,0,0,1.135,1.651Z" transform="translate(22.101 8.119)" fill="#f5f5f5"/>
        <path id="Path-12" data-name="Path" d="M1.134.417,1.124.391A.577.577,0,0,0,.03.761a1.293,1.293,0,0,0,.939.9.955.955,0,0,0,.127.008A1.414,1.414,0,0,0,2.213.9.577.577,0,1,0,1.252.258,1.783,1.783,0,0,1,1.134.417Z" transform="translate(31.915 5.296)" fill="#f5f5f5"/>
        <path id="Path-13" data-name="Path" d="M15.588,15.012c0-2.462-.108-4.772-.258-6.8a29.241,29.241,0,0,1,2.027,4.112.578.578,0,0,0,1.081-.406A38.235,38.235,0,0,0,15.1,5.594c-.316-3.11-.669-5.084-.675-5.119a.577.577,0,0,0-1.136.206c0,.025.187,1.042.4,2.753-.443-.658-.856-1.252-1.2-1.741l.028.009A.577.577,0,1,0,12.884.608L11.152.031a.571.571,0,0,0-.735.387A1.26,1.26,0,0,0,9.212.128.983.983,0,0,0,8.66,1.156a5.219,5.219,0,0,0,.4,1.636c.34.963.553,1.671.193,2.009a.631.631,0,0,1-.592.208c-.356-.09-.708-.564-.943-1.269a.552.552,0,0,0-.046-.08A9.82,9.82,0,0,0,7.494.465.577.577,0,1,0,6.362.692c.377,1.885.264,3.423-.3,4.114A1.037,1.037,0,0,1,5.2,5.2a.332.332,0,0,1-.276-.129c-.456-.525-.454-2.219-.307-3.254a.578.578,0,0,0-.572-.658c-.993,0-1.37,1.13-1.7,2.127-.146.438-.417,1.253-.607,1.337-.35,0-.575-1.026-.577-1.733a.577.577,0,0,0-.577-.576h0A.577.577,0,0,0,0,2.888C0,4.219.454,5.774,1.732,5.774c.952,0,1.338-1.037,1.66-2a3.618,3.618,0,0,0,.655,2.052A1.481,1.481,0,0,0,5.2,6.352a2.2,2.2,0,0,0,1.756-.814,2.691,2.691,0,0,0,.214-.319,2.154,2.154,0,0,0,1.21.908,1.665,1.665,0,0,0,.408.052,1.832,1.832,0,0,0,1.257-.537,1.7,1.7,0,0,0,.193-.233,1.558,1.558,0,0,0,.427.064,2.336,2.336,0,0,0,1.2-.368.577.577,0,0,0-.62-.974,1.226,1.226,0,0,1-.654.172,5.959,5.959,0,0,0-.437-1.9,7.991,7.991,0,0,1-.3-.965c.048.04.094.082.136.122a.577.577,0,0,0,.816,0,.553.553,0,0,0,.084-.126c.6.824,1.829,2.557,3.1,4.554.242,2.455.454,5.586.454,9.02a.577.577,0,0,0,1.155,0Z" transform="translate(16.327 1.19)" fill="#f5f5f5"/>
        <path id="Path-14" data-name="Path" d="M.578,2.309a.577.577,0,1,0,1.155,0A5.892,5.892,0,0,0,1.094.319.577.577,0,1,0,.061.835,5.126,5.126,0,0,1,.578,2.309Z" transform="translate(31.915 1.191)" fill="#f5f5f5"/>
        <path id="Path-15" data-name="Path" d="M3.146,1.218a.577.577,0,0,0-.775.254,1.652,1.652,0,0,1-.239.343A3.222,3.222,0,0,1,2.284.747a.578.578,0,0,0-.96-.578L.169,1.324a.577.577,0,1,0,.816.816l.029-.029a1.194,1.194,0,0,0,.309.607,1.056,1.056,0,0,0,.75.331,1,1,0,0,0,.159-.013A1.88,1.88,0,0,0,3.4,1.99.576.576,0,0,0,3.146,1.218Z" transform="translate(26.719 15.047)" fill="#f5f5f5"/>
        <path id="Shape-3" data-name="Shape" d="M4.264,9.072A33.262,33.262,0,0,1,.816,10.919.577.577,0,0,1,.338,9.867,30.41,30.41,0,0,0,4.052,7.835c-.007-.114-.011-.225-.011-.329a.577.577,0,0,1,.576-.577h0a.57.57,0,0,1,.437.212,4.889,4.889,0,0,0,1.89-2.084,3.49,3.49,0,0,0-.325-2.4,2.458,2.458,0,0,1-.269-.928A.982.982,0,0,1,6.9.706c.6-.249,1.251.281,1.588.619a.577.577,0,1,1-.816.816c-.012-.011-.023-.023-.036-.034.015.035.029.068.043.1a4.594,4.594,0,0,1,.384,3.13c-.26,1.039-1.437,2.121-2.772,3.056.125.651.408,1.423,1.057,1.423,1.363,0,3.464-1.984,3.464-4.619A8.343,8.343,0,0,0,8.757.9a.577.577,0,0,1,.961-.64,8.955,8.955,0,0,1,1.2,3.838,6.637,6.637,0,0,1,3.333-1.441C14.773,1.239,15.5.355,16.324.189a1.431,1.431,0,0,1,1.459.622A1.292,1.292,0,0,1,18,2.107c-.284.7-1.248,1.223-2.871,1.56q-.058.2-.111.411h4.069a.579.579,0,0,1,.544.772l-.577,1.623a.577.577,0,0,1-.535.384c-2.023.032-4.318.564-4.377,1.275a.989.989,0,0,0,.189.758,1.234,1.234,0,0,0,.721.35.577.577,0,0,1-.041,1.153c-.12,0-2.959-.019-4.412-1.694a3.372,3.372,0,0,1-.385-.552,4.905,4.905,0,0,1-3.863,2.824A2.246,2.246,0,0,1,4.264,9.072Z" transform="translate(10.554 7.541)" fill="#f5f5f5"/>
        <path id="Path-16" data-name="Path" d="M4.589,2.127,4.012.4A.577.577,0,0,0,2.89.635c.4,3.984,1.152,11.753,1.152,12.644,0,.8-1.423,2.375-3.722,3.525a.577.577,0,0,0,.516,1.033c2.1-1.05,4.36-2.924,4.36-4.558,0-.853-.59-6.991-.928-10.438A.578.578,0,0,0,4.589,2.127Z" transform="translate(31.338 1.19)" fill="#f5f5f5"/>
        <path id="Path-17" data-name="Path" d="M1.9,2.833a.577.577,0,0,0,.968-.551,2.911,2.911,0,0,1-.083-1.121.586.586,0,0,0,.6-.5A.577.577,0,0,0,2.9.012a1.043,1.043,0,0,0-.951.321,1.322,1.322,0,0,0-.291.62L.986.284A.577.577,0,0,0,.169,1.1Z" transform="translate(38.844 5.694)" fill="#f5f5f5"/>
        <path id="Path-18" data-name="Path" d="M2.406.109.241,1.661A.577.577,0,1,0,.914,2.6L3.079,1.047A.577.577,0,1,0,2.406.109Z" transform="translate(39.637 9.02)" fill="#f5f5f5"/>
        <path id="Path-19" data-name="Path" d="M.122.223a.578.578,0,0,0,.05.766,1.6,1.6,0,0,1,.117.831.577.577,0,0,0,.556.6H.866a.578.578,0,0,0,.577-.556C1.485.683,1.1.252.932.122A.577.577,0,0,0,.122.223Z" transform="translate(41.73 11.077)" fill="#f5f5f5"/>
        <path id="Path-20" data-name="Path" d="M10.356,14.361a.577.577,0,0,0,.577-.577c0-.852-.044-1.8-.115-2.792a21.079,21.079,0,0,1,1.353,2.514.576.576,0,0,0,.531.35.568.568,0,0,0,.227-.047.577.577,0,0,0,.3-.758A31.766,31.766,0,0,0,10.591,8.5c-.227-2.119-.522-4.2-.752-5.685a.559.559,0,0,0,.361-.09.57.57,0,0,0,.256-.522.568.568,0,0,0,.064.166,2.1,2.1,0,0,1,.21,1.414.578.578,0,0,0,.448.682.6.6,0,0,0,.118.012.578.578,0,0,0,.565-.461,3.271,3.271,0,0,0-.367-2.267.579.579,0,0,0-.8-.177.571.571,0,0,0-.258.522.565.565,0,0,0-.065-.167L9.4.409A.577.577,0,0,0,8.344.821c.008.045.449,2.579.84,5.633C8.742,5.829,8.3,5.218,7.87,4.635c-.07-.873-.14-1.681-.2-2.349a.6.6,0,0,0,.094-.037.577.577,0,0,0,.258-.775L7.445.319A.577.577,0,0,0,6.354.635c.069.689.141,1.452.211,2.253-.365-.481-.7-.922-.992-1.295A.578.578,0,0,0,5.454.638L4.3.061a.577.577,0,0,0-.709.877c.031.039,1.453,1.821,3.153,4.121.295,3.815.491,7.783.214,8.615-.051.152-.139.331-.222.338-.349.049-1.182-.732-1.6-1.568a.8.8,0,0,0-.773-.523c-.621.038-.863.721-1.3,1.96a8.127,8.127,0,0,1-1.147,2.444,6.561,6.561,0,0,1-.718-2.273.574.574,0,0,0,1.115-.195c0-.861-.6-7.418-.938-11.012A.577.577,0,0,0,1.7,2.127L1.125.395A.577.577,0,0,0,0,.632C.395,4.751,1.131,12.706,1.154,13.8c0-.01,0-.02,0-.029a.577.577,0,1,0-1.143.164c.169,1.18.6,3.209,1.592,3.54a.964.964,0,0,0,.308.05,1.134,1.134,0,0,0,.812-.377,8.324,8.324,0,0,0,1.43-2.884c.085-.239.185-.522.28-.765.53.774,1.454,1.736,2.39,1.661a1.417,1.417,0,0,0,1.236-1.124c.307-.921.186-4.133-.021-7.208.486.682.973,1.38,1.438,2.069.18,1.729.309,3.461.309,4.884A.577.577,0,0,0,10.356,14.361Z" transform="translate(36.534 1.191)" fill="#f5f5f5"/>
        <path id="Path-21" data-name="Path" d="M4.827,11.252c-.409-3.047-.979-6.576-1.34-8.742a.569.569,0,0,0,.484-.1A.577.577,0,0,0,4.08,1.6L3.033.227A.577.577,0,0,0,2.005.676c.01.059,1.04,5.986,1.677,10.729a5.411,5.411,0,0,1-.951,4.332,2.555,2.555,0,0,1-2.118.789A.577.577,0,0,0,.541,17.68c.1.006.194.009.289.009a3.644,3.644,0,0,0,2.746-1.164A6.45,6.45,0,0,0,4.827,11.252Z" transform="translate(46.445 1.263)" fill="#f5f5f5"/>
        <path id="Path-22" data-name="Path" d="M.159.189A.585.585,0,0,0,.188,1a.245.245,0,0,1,.069.12.27.27,0,0,1-.087.129.577.577,0,1,0,.816.816,1.31,1.31,0,0,0,.425-.985A1.374,1.374,0,0,0,.958.14.572.572,0,0,0,.159.189Z" transform="translate(44.761 16.132)" fill="#f5f5f5"/>
        <path id="Shape-4" data-name="Shape" d="M31.176,4.619a.577.577,0,0,1-.577-.577V2.887H5.2A8.056,8.056,0,0,1,0,1.154H30.6V.577a.577.577,0,1,1,1.154,0v.577h4.041a1.732,1.732,0,1,1,0,3.464Z" transform="translate(7.09 27.828)" fill="#f5f5f5"/>
    </g>
</svg>
