<svg id="Group" xmlns="http://www.w3.org/2000/svg" width="31.573" height="31.572" viewBox="0 0 31.573 31.572">
  <path id="Path" d="M0,0H31.573V31.573H0Z" fill="none"/>
  <path id="Path-2" data-name="Path" d="M5.262,0H2.631A2.631,2.631,0,0,0,0,2.631V18.417a2.631,2.631,0,0,0,2.631,2.631H15.786a2.631,2.631,0,0,0,2.631-2.631V2.631A2.631,2.631,0,0,0,15.786,0H13.155" transform="translate(6.578 6.578)" fill="none" stroke="#707070" stroke-linecap="round" stroke-linejoin="round" stroke-miterlimit="10" stroke-width="1.5"/>
  <rect id="Rectangle" width="7.893" height="5.262" rx="2.631" transform="translate(11.84 3.947)" fill="none" stroke="#707070" stroke-linecap="round" stroke-linejoin="round" stroke-miterlimit="10" stroke-width="1.5"/>
  <path id="Path-3" data-name="Path" d="M.722.729H.735" transform="translate(11.118 15.057)" fill="none" stroke="#707070" stroke-linecap="round" stroke-linejoin="round" stroke-miterlimit="10" stroke-width="1.5"/>
  <path id="Path-4" data-name="Path" d="M0,.729H2.631" transform="translate(17.102 15.057)" fill="none" stroke="#707070" stroke-linecap="round" stroke-linejoin="round" stroke-miterlimit="10" stroke-width="1.5"/>
  <path id="Path-5" data-name="Path" d="M.722.729H.735" transform="translate(11.118 20.319)" fill="none" stroke="#707070" stroke-linecap="round" stroke-linejoin="round" stroke-miterlimit="10" stroke-width="1.5"/>
  <path id="Path-6" data-name="Path" d="M0,.729H2.631" transform="translate(17.102 20.319)" fill="none" stroke="#707070" stroke-linecap="round" stroke-linejoin="round" stroke-miterlimit="10" stroke-width="1.5"/>
</svg>
