<svg id="user-multiple" xmlns="http://www.w3.org/2000/svg" width="17.146" height="24.003" viewBox="0 0 17.146 24.003">
  <path id="Path_10483" data-name="Path 10483" d="M19.4,30.537H17.681V26.251a4.292,4.292,0,0,0-4.286-4.286H8.251a4.292,4.292,0,0,0-4.286,4.286v4.286H2.25V26.251a6.008,6.008,0,0,1,6-6h5.144a6.008,6.008,0,0,1,6,6Z" transform="translate(-2.25 -6.534)" fill="#6f6b68"/>
  <path id="Path_10485" data-name="Path 10485" d="M11.626,3.965A4.286,4.286,0,1,1,7.34,8.251a4.286,4.286,0,0,1,4.286-4.286m0-1.715a6,6,0,1,0,6,6A6,6,0,0,0,11.626,2.25Z" transform="translate(-3.053 -2.25)" fill="#6f6b68"/>
</svg>
